<svg id="Layer_1" data-name="Layer 1" xmlns="http://www.w3.org/2000/svg" viewBox="0 0 44.21 43.18"><defs><style>.cls-1{fill:#313756;}</style></defs><title>Asset32</title><path class="cls-1" d="M4067.25,441.7h-36.14a4,4,0,0,1-4-4V412.55a0.75,0.75,0,1,1,1.5,0v25.11a2.54,2.54,0,0,0,2.54,2.54h36.14a2.54,2.54,0,0,0,2.54-2.54V412.55a0.75,0.75,0,0,1,1.5,0v25.11A4,4,0,0,1,4067.25,441.7Z" transform="translate(-4027.08 -398.52)"/><path class="cls-1" d="M4049.19,430.33a0.74,0.74,0,0,1-.47-0.17l-21.36-17.34a0.75,0.75,0,0,1,.95-1.16l20.88,17,20.88-17a0.75,0.75,0,1,1,.95,1.16l-21.36,17.34A0.74,0.74,0,0,1,4049.19,430.33Z" transform="translate(-4027.08 -398.52)"/><path class="cls-1" d="M4027.83,438.72a0.75,0.75,0,0,1-.47-1.33l15.84-12.87a0.75,0.75,0,1,1,.95,1.16l-15.84,12.87A0.74,0.74,0,0,1,4027.83,438.72Z" transform="translate(-4027.08 -398.52)"/><path class="cls-1" d="M4070.54,438.72a0.74,0.74,0,0,1-.47-0.17l-15.84-12.87a0.75,0.75,0,1,1,.95-1.16L4071,437.39A0.75,0.75,0,0,1,4070.54,438.72Z" transform="translate(-4027.08 -398.52)"/><path class="cls-1" d="M4064,418.34a0.75,0.75,0,0,1-.75-0.75v-15a2.54,2.54,0,0,0-2.54-2.54h-23a2.54,2.54,0,0,0-2.54,2.54v15a0.75,0.75,0,1,1-1.5,0v-15a4,4,0,0,1,4-4h23a4,4,0,0,1,4,4v15A0.75,0.75,0,0,1,4064,418.34Z" transform="translate(-4027.08 -398.52)"/><path class="cls-1" d="M4059.58,406.15H4038.8a0.75,0.75,0,0,1,0-1.5h20.78A0.75,0.75,0,0,1,4059.58,406.15Z" transform="translate(-4027.08 -398.52)"/><path class="cls-1" d="M4059.58,410.84H4038.8a0.75,0.75,0,1,1,0-1.5h20.78A0.75,0.75,0,0,1,4059.58,410.84Z" transform="translate(-4027.08 -398.52)"/><path class="cls-1" d="M4049.19,415.54H4038.8a0.75,0.75,0,1,1,0-1.5h10.39A0.75,0.75,0,1,1,4049.19,415.54Z" transform="translate(-4027.08 -398.52)"/></svg>