<svg id="Layer_1" data-name="Layer 1" xmlns="http://www.w3.org/2000/svg" viewBox="0 0 131.36 131.36"><defs><style>.cls-1{fill:#fff;}.cls-2{fill:#223f6a;}</style></defs><title>Asset31</title><circle class="cls-1" cx="65.68" cy="65.68" r="65.68"/><path class="cls-2" d="M1967,2059.92a22.27,22.27,0,1,1,22.27-22.27A22.3,22.3,0,0,1,1967,2059.92Zm0-43a20.77,20.77,0,1,0,20.77,20.77A20.8,20.8,0,0,0,1967,2016.87Z" transform="translate(-1901.34 -1971.88)"/><path class="cls-2" d="M1964.91,2059.81a0.75,0.75,0,0,1-.55-0.24c-21.35-23.28-.18-43.69,0-43.89a0.75,0.75,0,0,1,1,1.09c-0.84.79-20.29,19.61,0,41.79A0.75,0.75,0,0,1,1964.91,2059.81Z" transform="translate(-1901.34 -1971.88)"/><path class="cls-2" d="M1969.25,2059.81a0.75,0.75,0,0,1-.55-1.26c20.33-22.18.88-41,0-41.79a0.75,0.75,0,0,1,1-1.09c0.22,0.2,21.39,20.61,0,43.89A0.75,0.75,0,0,1,1969.25,2059.81Z" transform="translate(-1901.34 -1971.88)"/><path class="cls-2" d="M1967.36,2030.68a30.1,30.1,0,0,1-17.51-6,0.75,0.75,0,0,1,1-1.15c0.63,0.52,15.67,12.71,32.47,0a0.75,0.75,0,0,1,.91,1.2A27.41,27.41,0,0,1,1967.36,2030.68Z" transform="translate(-1901.34 -1971.88)"/><path class="cls-2" d="M1950.32,2052a0.75,0.75,0,0,1-.45-1.35c17.77-13.46,34.17-.12,34.34,0a0.75,0.75,0,0,1-1,1.15c-0.63-.52-15.67-12.71-32.47,0A0.75,0.75,0,0,1,1950.32,2052Z" transform="translate(-1901.34 -1971.88)"/><path class="cls-2" d="M1988.55,2038.39h-43a0.75,0.75,0,0,1,0-1.5h43A0.75,0.75,0,0,1,1988.55,2038.39Z" transform="translate(-1901.34 -1971.88)"/><path class="cls-2" d="M1967,2059.92a0.75,0.75,0,0,1-.75-0.75v-43a0.75,0.75,0,0,1,1.5,0v43A0.75,0.75,0,0,1,1967,2059.92Z" transform="translate(-1901.34 -1971.88)"/></svg>