<svg id="Layer_1" data-name="Layer 1" xmlns="http://www.w3.org/2000/svg" viewBox="0 0 132.36 132.36"><defs><style>.cls-1{fill:#fff;}</style></defs><title>Asset4</title><path class="cls-1" d="M1967,1835.81a66.18,66.18,0,1,1,66.18-66.18A66.25,66.25,0,0,1,1967,1835.81Zm0-131.36a65.18,65.18,0,1,0,65.18,65.18A65.25,65.25,0,0,0,1967,1704.46Z" transform="translate(-1900.84 -1703.46)"/><path class="cls-1" d="M1975.88,1792.89a0.75,0.75,0,0,1-.65-0.38l-8.36-14.53a0.75,0.75,0,0,1,1.3-.75l7.45,13,1.26-4.71a0.75,0.75,0,0,1,.92-0.53l4.71,1.27-6.58-11.4a0.75,0.75,0,1,1,1.3-.75l7.49,13a0.75,0.75,0,0,1-.84,1.1l-5.73-1.54-1.53,5.74a0.75,0.75,0,0,1-.63.55h-0.1Z" transform="translate(-1900.84 -1703.46)"/><path class="cls-1" d="M1958.12,1792.89H1958a0.75,0.75,0,0,1-.63-0.55l-1.53-5.74-5.74,1.54a0.75,0.75,0,0,1-.84-1.1l8-13.7a0.75,0.75,0,1,1,1.29.76l-7.1,12.13,4.7-1.26a0.75,0.75,0,0,1,.92.53l1.26,4.71,7.45-13a0.75,0.75,0,0,1,1.3.75l-8.36,14.53A0.75,0.75,0,0,1,1958.12,1792.89Z" transform="translate(-1900.84 -1703.46)"/><path class="cls-1" d="M1967.93,1778a15.66,15.66,0,1,1,15.66-15.66A15.68,15.68,0,0,1,1967.93,1778Zm0-29.82a14.16,14.16,0,1,0,14.16,14.16A14.17,14.17,0,0,0,1967.93,1748.16Z" transform="translate(-1900.84 -1703.46)"/><path class="cls-1" d="M1967.93,1771.93a9.61,9.61,0,1,1,9.61-9.61A9.62,9.62,0,0,1,1967.93,1771.93Zm0-17.73a8.11,8.11,0,1,0,8.11,8.11A8.12,8.12,0,0,0,1967.93,1754.2Z" transform="translate(-1900.84 -1703.46)"/></svg>