<svg id="Layer_1" data-name="Layer 1" xmlns="http://www.w3.org/2000/svg" viewBox="0 0 131.36 131.36"><defs><style>.cls-1{fill:#fff;}.cls-2{fill:#223f6a;}</style></defs><title>Asset29</title><circle class="cls-1" cx="65.68" cy="65.68" r="65.68"/><path class="cls-2" d="M2640.91,2062.92H2618a1.75,1.75,0,0,1-1.75-1.75V2015.4a1.75,1.75,0,0,1,1.75-1.75h22.92a1.75,1.75,0,0,1,1.75,1.75v45.76A1.75,1.75,0,0,1,2640.91,2062.92ZM2618,2015.15a0.25,0.25,0,0,0-.25.25v45.76a0.25,0.25,0,0,0,.25.25h22.92a0.25,0.25,0,0,0,.25-0.25V2015.4a0.25,0.25,0,0,0-.25-0.25H2618Z" transform="translate(-2564.08 -1971.88)"/><path class="cls-2" d="M2641.91,2023H2617a0.75,0.75,0,0,1,0-1.5h24.92A0.75,0.75,0,0,1,2641.91,2023Z" transform="translate(-2564.08 -1971.88)"/><path class="cls-2" d="M2641.91,2054H2617a0.75,0.75,0,0,1,0-1.5h24.92A0.75,0.75,0,0,1,2641.91,2054Z" transform="translate(-2564.08 -1971.88)"/><circle class="cls-2" cx="65.37" cy="85.83" r="1.7"/><path class="cls-2" d="M2632.51,2019.09h-6.13a0.75,0.75,0,0,1,0-1.5h6.13A0.75,0.75,0,0,1,2632.51,2019.09Z" transform="translate(-2564.08 -1971.88)"/></svg>