<svg id="Layer_1" data-name="Layer 1" xmlns="http://www.w3.org/2000/svg" viewBox="0 0 24.42 24.65"><defs><style>.cls-1{fill:#313756;}</style></defs><title>Asset34</title><path class="cls-1" d="M7509.88,876.32a3.1,3.1,0,0,1-.51,0c-17.83-3.21-18.37-18.64-18.39-19.37-0.14-1.6,1-2.39,2.45-3.38,0.5-.35,1.07-0.74,1.66-1.21a2.37,2.37,0,0,1,2.13-.59,4.05,4.05,0,0,1,2.23,2.23s0.86,2.24,1.29,3.43c0.55,1.53,0,2.59-2,3.67a1.26,1.26,0,0,0-.7.8,2.16,2.16,0,0,0,.36,1.46c0.13,0.12,4.39,4.46,5.18,5.31a2.24,2.24,0,0,0,1.86.53,1.3,1.3,0,0,0,1-.8,2.63,2.63,0,0,1,2.94-1.57,30.36,30.36,0,0,1,4.42,1.13,2.3,2.3,0,0,1,1.39,1.21,3,3,0,0,1,0,2.08l0,0.09-2.21,3.41A3.56,3.56,0,0,1,7509.88,876.32Zm-13.16-23.65a1.62,1.62,0,0,0-1,.43c-0.61.5-1.2,0.9-1.72,1.26-1.43,1-2.11,1.5-2,2.48v0c0,0.62.23,15.29,17.56,18.42a2.65,2.65,0,0,0,2.56-1.14l2.18-3.36a1.9,1.9,0,0,0,0-1.27,1.33,1.33,0,0,0-.82-0.68,29.86,29.86,0,0,0-4.26-1.08,1.63,1.63,0,0,0-1.84,1,2.31,2.31,0,0,1-1.78,1.4,3.23,3.23,0,0,1-2.76-.82c-0.79-.84-5.18-5.31-5.22-5.36a3.13,3.13,0,0,1-.56-2.32,2.23,2.23,0,0,1,1.19-1.45c1.89-1,1.83-1.7,1.56-2.46-0.42-1.19-1.27-3.39-1.27-3.39a3,3,0,0,0-1.54-1.64A1.06,1.06,0,0,0,7496.71,852.67Z" transform="translate(-7490.97 -851.67)"/></svg>