<svg id="Layer_1" data-name="Layer 1" xmlns="http://www.w3.org/2000/svg" viewBox="0 0 647.34 20.62"><defs><style>.cls-1{fill:#edc962;}.cls-2{fill:#66b47d;}.cls-3{fill:#939598;}</style></defs><title>Asset2</title><circle class="cls-1" cx="10.31" cy="10.31" r="7.17"/><path class="cls-2" d="M2153,571a10.31,10.31,0,1,1,10.31-10.31A10.32,10.32,0,0,1,2153,571Zm0-19.62a9.31,9.31,0,1,0,9.31,9.31A9.32,9.32,0,0,0,2153,551.34Z" transform="translate(-2142.71 -550.34)"/><circle class="cls-1" cx="323.8" cy="10.31" r="7.17"/><path class="cls-2" d="M2466.52,571a10.31,10.31,0,1,1,10.31-10.31A10.32,10.32,0,0,1,2466.52,571Zm0-19.62a9.31,9.31,0,1,0,9.31,9.31A9.32,9.32,0,0,0,2466.52,551.34Z" transform="translate(-2142.71 -550.34)"/><circle class="cls-1" cx="637.03" cy="10.31" r="7.17"/><path class="cls-2" d="M2779.74,571a10.31,10.31,0,1,1,10.31-10.31A10.32,10.32,0,0,1,2779.74,571Zm0-19.62a9.31,9.31,0,1,0,9.31,9.31A9.32,9.32,0,0,0,2779.74,551.34Z" transform="translate(-2142.71 -550.34)"/><path class="cls-3" d="M2447.62,560.9h-2v-0.5h2v0.5Zm-4,0h-2v-0.5h2v0.5Zm-4,0h-2v-0.5h2v0.5Zm-4,0h-2v-0.5h2v0.5Zm-4,0h-2v-0.5h2v0.5Zm-4,0h-2v-0.5h2v0.5Zm-4,0h-2v-0.5h2v0.5Zm-4,0h-2v-0.5h2v0.5Zm-4,0h-2v-0.5h2v0.5Zm-4,0h-2v-0.5h2v0.5Zm-4,0h-2v-0.5h2v0.5Zm-4,0h-2v-0.5h2v0.5Zm-4,0h-2v-0.5h2v0.5Zm-4,0h-2v-0.5h2v0.5Zm-4,0h-2v-0.5h2v0.5Zm-4,0h-2v-0.5h2v0.5Zm-4,0h-2v-0.5h2v0.5Zm-4,0h-2v-0.5h2v0.5Zm-4,0h-2v-0.5h2v0.5Zm-4,0h-2v-0.5h2v0.5Zm-4,0h-2v-0.5h2v0.5Zm-4,0h-2v-0.5h2v0.5Zm-4,0h-2v-0.5h2v0.5Zm-4,0h-2v-0.5h2v0.5Zm-4,0h-2v-0.5h2v0.5Zm-4,0h-2v-0.5h2v0.5Zm-4,0h-2v-0.5h2v0.5Zm-4,0h-2v-0.5h2v0.5Zm-4,0h-2v-0.5h2v0.5Zm-4,0h-2v-0.5h2v0.5Zm-4,0h-2v-0.5h2v0.5Zm-4,0h-2v-0.5h2v0.5Zm-4,0h-2v-0.5h2v0.5Zm-4,0h-2v-0.5h2v0.5Zm-4,0h-2v-0.5h2v0.5Zm-4,0h-2v-0.5h2v0.5Zm-4,0h-2v-0.5h2v0.5Zm-4,0h-2v-0.5h2v0.5Zm-4,0h-2v-0.5h2v0.5Zm-4,0h-2v-0.5h2v0.5Zm-4,0h-2v-0.5h2v0.5Zm-4,0h-2v-0.5h2v0.5Zm-4,0h-2v-0.5h2v0.5Zm-4,0h-2v-0.5h2v0.5Zm-4,0h-2v-0.5h2v0.5Zm-4,0h-2v-0.5h2v0.5Zm-4,0h-2v-0.5h2v0.5Zm-4,0h-2v-0.5h2v0.5Zm-4,0h-2v-0.5h2v0.5Zm-4,0h-2v-0.5h2v0.5Zm-4,0h-2v-0.5h2v0.5Zm-4,0h-2v-0.5h2v0.5Zm-4,0h-2v-0.5h2v0.5Zm-4,0h-2v-0.5h2v0.5Zm-4,0h-2v-0.5h2v0.5Zm-4,0h-2v-0.5h2v0.5Zm-4,0h-2v-0.5h2v0.5Zm-4,0h-2v-0.5h2v0.5Zm-4,0h-2v-0.5h2v0.5Zm-4,0h-2v-0.5h2v0.5Zm-4,0h-2v-0.5h2v0.5Zm-4,0h-2v-0.5h2v0.5Zm-4,0h-2v-0.5h2v0.5Zm-4,0h-2v-0.5h2v0.5Zm-4,0h-2v-0.5h2v0.5Zm-4,0h-2v-0.5h2v0.5Zm-4,0h-2v-0.5h2v0.5Zm-4,0h-2v-0.5h2v0.5Zm-4,0h-2v-0.5h2v0.5Zm-4,0h-2v-0.5h2v0.5Z" transform="translate(-2142.71 -550.34)"/><path class="cls-3" d="M2764.42,560.9h-2v-0.5h2v0.5Zm-4,0h-2v-0.5h2v0.5Zm-4,0h-2v-0.5h2v0.5Zm-4,0h-2v-0.5h2v0.5Zm-4,0h-2v-0.5h2v0.5Zm-4,0h-2v-0.5h2v0.5Zm-4,0h-2v-0.5h2v0.5Zm-4,0h-2v-0.5h2v0.5Zm-4,0h-2v-0.5h2v0.5Zm-4,0h-2v-0.5h2v0.5Zm-4,0h-2v-0.5h2v0.5Zm-4,0h-2v-0.5h2v0.5Zm-4,0h-2v-0.5h2v0.5Zm-4,0h-2v-0.5h2v0.5Zm-4,0h-2v-0.5h2v0.5Zm-4,0h-2v-0.5h2v0.5Zm-4,0h-2v-0.5h2v0.5Zm-4,0h-2v-0.5h2v0.5Zm-4,0h-2v-0.5h2v0.5Zm-4,0h-2v-0.5h2v0.5Zm-4,0h-2v-0.5h2v0.5Zm-4,0h-2v-0.5h2v0.5Zm-4,0h-2v-0.5h2v0.5Zm-4,0h-2v-0.5h2v0.5Zm-4,0h-2v-0.5h2v0.5Zm-4,0h-2v-0.5h2v0.5Zm-4,0h-2v-0.5h2v0.5Zm-4,0h-2v-0.5h2v0.5Zm-4,0h-2v-0.5h2v0.5Zm-4,0h-2v-0.5h2v0.5Zm-4,0h-2v-0.5h2v0.5Zm-4,0h-2v-0.5h2v0.5Zm-4,0h-2v-0.5h2v0.5Zm-4,0h-2v-0.5h2v0.5Zm-4,0h-2v-0.5h2v0.5Zm-4,0h-2v-0.5h2v0.5Zm-4,0h-2v-0.5h2v0.5Zm-4,0h-2v-0.5h2v0.5Zm-4,0h-2v-0.5h2v0.5Zm-4,0h-2v-0.5h2v0.5Zm-4,0h-2v-0.5h2v0.5Zm-4,0h-2v-0.5h2v0.5Zm-4,0h-2v-0.5h2v0.5Zm-4,0h-2v-0.5h2v0.5Zm-4,0h-2v-0.5h2v0.5Zm-4,0h-2v-0.5h2v0.5Zm-4,0h-2v-0.5h2v0.5Zm-4,0h-2v-0.5h2v0.5Zm-4,0h-2v-0.5h2v0.5Zm-4,0h-2v-0.5h2v0.5Zm-4,0h-2v-0.5h2v0.5Zm-4,0h-2v-0.5h2v0.5Zm-4,0h-2v-0.5h2v0.5Zm-4,0h-2v-0.5h2v0.5Zm-4,0h-2v-0.5h2v0.5Zm-4,0h-2v-0.5h2v0.5Zm-4,0h-2v-0.5h2v0.5Zm-4,0h-2v-0.5h2v0.5Zm-4,0h-2v-0.5h2v0.5Zm-4,0h-2v-0.5h2v0.5Zm-4,0h-2v-0.5h2v0.5Zm-4,0h-2v-0.5h2v0.5Zm-4,0h-2v-0.5h2v0.5Zm-4,0h-2v-0.5h2v0.5Zm-4,0h-2v-0.5h2v0.5Zm-4,0h-2v-0.5h2v0.5Zm-4,0h-2v-0.5h2v0.5Zm-4,0h-2v-0.5h2v0.5Zm-4,0h-2v-0.5h2v0.5Zm-4,0h-2v-0.5h2v0.5Zm-4,0h-2v-0.5h2v0.5Z" transform="translate(-2142.71 -550.34)"/></svg>