<svg id="Layer_1" data-name="Layer 1" xmlns="http://www.w3.org/2000/svg" viewBox="0 0 131.36 131.36"><defs><style>.cls-1{fill:#fff;}.cls-2{fill:#223f6a;}</style></defs><title>Asset28</title><circle class="cls-1" cx="65.68" cy="65.68" r="65.68"/><path class="cls-2" d="M2962.16,2051.16c-15.1,0-16.46-12.93-16.48-13.06v-19.61a0.75,0.75,0,0,1,.75-0.75h31a0.75,0.75,0,0,1,.75.75V2038C2978.17,2038.2,2977.28,2051.16,2962.16,2051.16Zm-15-31.92V2038c0,0.41,1.27,11.63,15,11.63,5.78,0,10-2,12.48-5.84a13.36,13.36,0,0,0,2-5.82v-18.75h-29.5Z" transform="translate(-2895.44 -1971.88)"/><path class="cls-2" d="M2977.43,2036.47a0.75,0.75,0,1,1,0-1.5,9.17,9.17,0,0,0,7.21-2.94c3.47-3.91,3.32-10.66,3.17-12.79h-51.14c-0.26,1.89-.77,7.78,2.21,11.41,1.67,2,4.2,3,7.54,3a0.75,0.75,0,0,1,0,1.5c-3.81,0-6.74-1.21-8.71-3.6-4-4.89-2.49-12.91-2.42-13.25a0.75,0.75,0,0,1,.74-0.6h52.46a0.75,0.75,0,0,1,.74.66c0,0.38,1.1,9.44-3.48,14.62A10.61,10.61,0,0,1,2977.43,2036.47Z" transform="translate(-2895.44 -1971.88)"/><path class="cls-2" d="M2962.16,2059.18a0.75,0.75,0,0,1-.75-0.75v-8a0.75,0.75,0,0,1,1.5,0v8A0.75,0.75,0,0,1,2962.16,2059.18Z" transform="translate(-2895.44 -1971.88)"/><path class="cls-2" d="M2970.21,2059.18H2954.1a0.75,0.75,0,0,1,0-1.5h16.11A0.75,0.75,0,0,1,2970.21,2059.18Z" transform="translate(-2895.44 -1971.88)"/></svg>