<svg id="Layer_1" data-name="Layer 1" xmlns="http://www.w3.org/2000/svg" viewBox="0 0 588.24 461.88"><defs><style>.cls-1{fill:#939598;}.cls-2{fill:#6d6e71;}.cls-3{fill:#e65f3b;}.cls-4{fill:#414042;}</style></defs><title>Improve your account</title><path class="cls-1" d="M2466,2848.59h-0.5v-0.72h0.5v0.72Zm0-2.72h-0.5v-2h0.5v2Zm0-4h-0.5v-2h0.5v2Zm0-4h-0.5v-2h0.5v2Zm0-4h-0.5v-2h0.5v2Zm0-4h-0.5v-2h0.5v2Zm0-4h-0.5v-2h0.5v2Zm0-4h-0.5v-2h0.5v2Zm0-4h-0.5v-2h0.5v2Zm0-4h-0.5v-2h0.5v2Zm0-4h-0.5v-2h0.5v2Z" transform="translate(-2185.59 -2572.95)"/><path class="cls-1" d="M2466,2918.91h-0.5v-2h0.5v2Zm0-4h-0.5v-2h0.5v2Zm0-4h-0.5v-2h0.5v2Zm0-4h-0.5v-2h0.5v2Zm0-4h-0.5v-2h0.5v2Zm0-4h-0.5v-2h0.5v2Zm0-4h-0.5v-2h0.5v2Zm0-4h-0.5v-2h0.5v2Zm0-4h-0.5v-2h0.5v2Zm0-4h-0.5v-2h0.5v2Z" transform="translate(-2185.59 -2572.95)"/><path class="cls-1" d="M2466,2997h-0.5v-2h0.5v2Zm0-4h-0.5v-2h0.5v2Zm0-4h-0.5v-2h0.5v2Zm0-4h-0.5v-2h0.5v2Zm0-4h-0.5v-2h0.5v2Zm0-4h-0.5v-2h0.5v2Zm0-4h-0.5v-2h0.5v2Zm0-4h-0.5v-2h0.5v2Zm0-4h-0.5v-2h0.5v2Zm0-4h-0.5v-2h0.5v2Zm0-4h-0.5v-2h0.5v2Z" transform="translate(-2185.59 -2572.95)"/><path class="cls-1" d="M2466,2778.49h-0.5V2778h0.5v0.46Zm-0.5-2.46v-2h0.5v2h-0.5Zm0.5-4h-0.5v-2h0.5v2Zm0-4h-0.5v-2h0.5v2Zm0-4h-0.5v-2h0.5v2Zm0-4h-0.5v-2h0.5v2Zm0-4h-0.5v-2h0.5v2Zm0-4h-0.5v-2h0.5v2Zm-0.5-4v-2h0.5v2h-0.5Zm0.5-4h-0.5v-2h0.5v2Zm-0.5-4v-2h0.5v2h-0.5Zm0.5-4h-0.5v-2h0.5v2Z" transform="translate(-2185.59 -2572.95)"/><path class="cls-1" d="M2466,2707.37h-0.5v-2h0.5v2Zm0-4h-0.5v-2h0.5v2Zm0-4h-0.5v-2h0.5v2Zm0-4h-0.5v-2h0.5v2Zm0-4h-0.5v-2h0.5v2Zm0-4h-0.5v-2h0.5v2Zm0-4h-0.5v-2h0.5v2Zm0-4h-0.5v-2h0.5v2Zm0-4h-0.5v-2h0.5v2Zm0-4h-0.5v-2h0.5v2Zm0-4h-0.5v-2h0.5v2Zm0-4h-0.5v-2h0.5v2Z" transform="translate(-2185.59 -2572.95)"/><path class="cls-2" d="M2503.72,2574.94l-0.67.85a4.12,4.12,0,0,0-2.9-1.23,3.87,3.87,0,1,0,0,7.73,4.28,4.28,0,0,0,2.9-1.18l0.69,0.77a5.41,5.41,0,0,1-3.64,1.51,4.95,4.95,0,1,1,0-9.89A5.3,5.3,0,0,1,2503.72,2574.94Z" transform="translate(-2185.59 -2572.95)"/><path class="cls-2" d="M2505.8,2583.35V2573h1.09v10.39h-1.09Z" transform="translate(-2185.59 -2572.95)"/><path class="cls-2" d="M2511,2573.85a0.72,0.72,0,1,1-.71-0.76A0.72,0.72,0,0,1,2511,2573.85Zm-1.25,9.5V2576h1.08v7.38h-1.08Z" transform="translate(-2185.59 -2572.95)"/><path class="cls-2" d="M2519.4,2577l-0.6.77a3.12,3.12,0,0,0-2.2-.85,2.73,2.73,0,0,0,0,5.45,2.88,2.88,0,0,0,2.28-1l0.63,0.67a3.71,3.71,0,0,1-3,1.27,3.73,3.73,0,0,1,0-7.45A3.78,3.78,0,0,1,2519.4,2577Z" transform="translate(-2185.59 -2572.95)"/><path class="cls-2" d="M2522.8,2581.23v2.12h-1.09V2573h1.09v6.79l3.8-3.78h1.29l-2.76,2.86,3.05,4.52h-1.3l-2.52-3.73Z" transform="translate(-2185.59 -2572.95)"/><path class="cls-2" d="M2537.58,2582.84a3.09,3.09,0,0,1-1.67.56,1.81,1.81,0,0,1-1.88-2.1v-4.22H2533v-0.88H2534v-1.95h1.08v1.95h2.34v0.9h-2.34v4c0,0.9.35,1.23,1,1.23a2.24,2.24,0,0,0,1.18-.38Z" transform="translate(-2185.59 -2572.95)"/><path class="cls-2" d="M2546,2579.65a3.74,3.74,0,1,1-3.74-3.71A3.58,3.58,0,0,1,2546,2579.65Zm-6.39,0a2.65,2.65,0,1,0,2.65-2.73A2.59,2.59,0,0,0,2539.61,2579.66Z" transform="translate(-2185.59 -2572.95)"/><path class="cls-2" d="M2560.2,2579.31a4.12,4.12,0,0,1-8.24,0v-5.77h1.12v5.77a3,3,0,1,0,6,0v-5.77h1.12v5.77Z" transform="translate(-2185.59 -2572.95)"/><path class="cls-2" d="M2570.47,2579.68a3.45,3.45,0,0,1-3.52,3.71,3.09,3.09,0,0,1-2.87-1.62v4.3H2563V2576h1.09v1.6a3.07,3.07,0,0,1,2.84-1.64A3.49,3.49,0,0,1,2570.47,2579.68Zm-1.11,0a2.64,2.64,0,1,0-2.63,2.75A2.6,2.6,0,0,0,2569.37,2579.65Z" transform="translate(-2185.59 -2572.95)"/><path class="cls-2" d="M2579.31,2583.35h-1.09v-1.58a3.08,3.08,0,0,1-2.87,1.64,3.75,3.75,0,0,1,0-7.49,3.09,3.09,0,0,1,2.89,1.65V2573h1.09v10.39Zm-1.09-3.67a2.67,2.67,0,1,0-2.66,2.75A2.62,2.62,0,0,0,2578.21,2579.68Z" transform="translate(-2185.59 -2572.95)"/><path class="cls-2" d="M2586.75,2582.21a3.18,3.18,0,0,1-2.7,1.19,2.29,2.29,0,0,1-2.51-2.25c0-1.29,1-2.1,2.76-2.12h2.42v-0.43a1.68,1.68,0,0,0-2-1.72,4.09,4.09,0,0,0-2.34.84l-0.46-.8a5,5,0,0,1,3-1c1.82,0,2.83,1,2.84,2.55v4.88h-1.06v-1.13Zm0-1.42v-0.88h-2.3c-1.23,0-1.88.38-1.88,1.19a1.45,1.45,0,0,0,1.7,1.34A2.39,2.39,0,0,0,2586.74,2580.8Z" transform="translate(-2185.59 -2572.95)"/><path class="cls-2" d="M2594.2,2582.84a3.09,3.09,0,0,1-1.67.56,1.81,1.81,0,0,1-1.88-2.1v-4.22h-1.06v-0.88h1.06v-1.95h1.08v1.95h2.34v0.9h-2.34v4c0,0.9.35,1.23,1,1.23a2.24,2.24,0,0,0,1.18-.38Z" transform="translate(-2185.59 -2572.95)"/><path class="cls-2" d="M2602.24,2580.08h-6a2.59,2.59,0,0,0,2.68,2.35,3.08,3.08,0,0,0,2.28-.92l0.6,0.64a3.88,3.88,0,0,1-3,1.23,3.73,3.73,0,0,1,0-7.45C2601.17,2575.92,2602.35,2577.57,2602.24,2580.08Zm-1-.9a2.3,2.3,0,0,0-2.47-2.31,2.49,2.49,0,0,0-2.58,2.31h5Z" transform="translate(-2185.59 -2572.95)"/><path class="cls-2" d="M2611.85,2583.35h-1.11V2580l-3.8-6.49h1.16l3.18,5.11,3.14-5.11h1.15l-3.73,6.44v3.36Z" transform="translate(-2185.59 -2572.95)"/><path class="cls-2" d="M2623.17,2579.65a3.74,3.74,0,1,1-3.74-3.71A3.58,3.58,0,0,1,2623.17,2579.65Zm-6.39,0a2.65,2.65,0,1,0,2.65-2.73A2.59,2.59,0,0,0,2616.78,2579.66Z" transform="translate(-2185.59 -2572.95)"/><path class="cls-2" d="M2631.62,2583.35h-1.09v-1.67a2.81,2.81,0,0,1-2.8,1.71,2.6,2.6,0,0,1-2.76-2.87V2576h1.09v4.26a1.89,1.89,0,0,0,2,2.07,2.43,2.43,0,0,0,2.42-2.7V2576h1.09v7.38Z" transform="translate(-2185.59 -2572.95)"/><path class="cls-2" d="M2635.51,2577.6a2.76,2.76,0,0,1,2.65-1.68V2577a2.45,2.45,0,0,0-2.65,2.4v3.92h-1.09V2576h1.09v1.64Z" transform="translate(-2185.59 -2572.95)"/><path class="cls-2" d="M2644.75,2580.87l-1.09,2.48h-1.19l4.4-9.81H2648l4.38,9.81h-1.22l-1.09-2.48h-5.35Zm2.66-6.05-2.19,5h4.4Z" transform="translate(-2185.59 -2572.95)"/><path class="cls-2" d="M2659.3,2577l-0.6.77a3.12,3.12,0,0,0-2.2-.85,2.73,2.73,0,0,0,0,5.45,2.88,2.88,0,0,0,2.28-1l0.63,0.67a3.71,3.71,0,0,1-3,1.27,3.73,3.73,0,0,1,0-7.45A3.78,3.78,0,0,1,2659.3,2577Z" transform="translate(-2185.59 -2572.95)"/><path class="cls-2" d="M2666.95,2577l-0.6.77a3.12,3.12,0,0,0-2.2-.85,2.73,2.73,0,0,0,0,5.45,2.88,2.88,0,0,0,2.28-1l0.63,0.67a3.71,3.71,0,0,1-3,1.27,3.73,3.73,0,0,1,0-7.45A3.78,3.78,0,0,1,2666.95,2577Z" transform="translate(-2185.59 -2572.95)"/><path class="cls-2" d="M2675.57,2579.65a3.74,3.74,0,1,1-3.74-3.71A3.58,3.58,0,0,1,2675.57,2579.65Zm-6.39,0a2.65,2.65,0,1,0,2.65-2.73A2.59,2.59,0,0,0,2669.18,2579.66Z" transform="translate(-2185.59 -2572.95)"/><path class="cls-2" d="M2684,2583.35h-1.09v-1.67a2.81,2.81,0,0,1-2.8,1.71,2.6,2.6,0,0,1-2.76-2.87V2576h1.09v4.26a1.89,1.89,0,0,0,2,2.07,2.43,2.43,0,0,0,2.42-2.7V2576H2684v7.38Z" transform="translate(-2185.59 -2572.95)"/><path class="cls-2" d="M2693.57,2578.79v4.55h-1.09v-4.26a1.91,1.91,0,0,0-2.09-2.07,2.4,2.4,0,0,0-2.48,2.37v4h-1.09V2576h1.09v1.63a2.91,2.91,0,0,1,2.86-1.67A2.61,2.61,0,0,1,2693.57,2578.79Z" transform="translate(-2185.59 -2572.95)"/><path class="cls-2" d="M2700,2582.84a3.09,3.09,0,0,1-1.67.56,1.81,1.81,0,0,1-1.88-2.1v-4.22h-1.06v-0.88h1.06v-1.95h1.08v1.95h2.34v0.9h-2.34v4c0,0.9.35,1.23,1,1.23a2.24,2.24,0,0,0,1.18-.38Z" transform="translate(-2185.59 -2572.95)"/><path class="cls-2" d="M2224.74,2651a4.12,4.12,0,0,1-8.24,0v-5.77h1.12V2651a3,3,0,1,0,6,0v-5.77h1.12V2651Z" transform="translate(-2185.59 -2572.95)"/><path class="cls-2" d="M2235,2651.39a3.45,3.45,0,0,1-3.52,3.71,3.09,3.09,0,0,1-2.87-1.62v4.3h-1.09v-10.1h1.09v1.6a3.07,3.07,0,0,1,2.84-1.64A3.49,3.49,0,0,1,2235,2651.39Zm-1.11,0a2.64,2.64,0,1,0-2.63,2.75A2.6,2.6,0,0,0,2233.91,2651.36Z" transform="translate(-2185.59 -2572.95)"/><path class="cls-2" d="M2243.85,2655.06h-1.09v-1.58a3.08,3.08,0,0,1-2.87,1.64,3.75,3.75,0,0,1,0-7.49,3.09,3.09,0,0,1,2.89,1.65v-4.61h1.09v10.39Zm-1.09-3.67a2.67,2.67,0,1,0-2.66,2.75A2.62,2.62,0,0,0,2242.75,2651.39Z" transform="translate(-2185.59 -2572.95)"/><path class="cls-2" d="M2251.29,2653.93a3.18,3.18,0,0,1-2.7,1.19,2.29,2.29,0,0,1-2.51-2.25c0-1.29,1-2.1,2.76-2.12h2.42v-0.43a1.68,1.68,0,0,0-2-1.72,4.09,4.09,0,0,0-2.34.84l-0.46-.8a5,5,0,0,1,3-1c1.82,0,2.83,1,2.84,2.55v4.88h-1.06v-1.13Zm0-1.42v-0.88H2249c-1.23,0-1.88.38-1.88,1.19a1.45,1.45,0,0,0,1.7,1.34A2.39,2.39,0,0,0,2251.28,2652.51Z" transform="translate(-2185.59 -2572.95)"/><path class="cls-2" d="M2258.74,2654.56a3.09,3.09,0,0,1-1.67.56,1.81,1.81,0,0,1-1.88-2.1v-4.22h-1.06v-0.88h1.06V2646h1.08v1.95h2.34v0.9h-2.34v4c0,0.9.35,1.23,1,1.23a2.24,2.24,0,0,0,1.18-.38Z" transform="translate(-2185.59 -2572.95)"/><path class="cls-2" d="M2266.78,2651.8h-6a2.59,2.59,0,0,0,2.68,2.35,3.08,3.08,0,0,0,2.28-.92l0.6,0.64a3.88,3.88,0,0,1-3,1.23,3.73,3.73,0,0,1,0-7.45C2265.71,2647.64,2266.89,2649.29,2266.78,2651.8Zm-1-.9a2.3,2.3,0,0,0-2.47-2.31,2.49,2.49,0,0,0-2.58,2.31h5Z" transform="translate(-2185.59 -2572.95)"/><path class="cls-2" d="M2277.08,2648.31l-0.42.87a3.9,3.9,0,0,0-2-.6c-0.83,0-1.46.29-1.46,1,0,1.64,4.12.8,4.12,3.45,0,1.46-1.29,2.1-2.7,2.1a4.17,4.17,0,0,1-2.83-1l0.42-.83a3.73,3.73,0,0,0,2.45.94c0.87,0,1.57-.32,1.58-1,0-1.78-4.09-.87-4.08-3.49,0-1.42,1.22-2,2.56-2A4.27,4.27,0,0,1,2277.08,2648.31Z" transform="translate(-2185.59 -2572.95)"/><path class="cls-2" d="M2286,2651.36a3.74,3.74,0,1,1-3.74-3.71A3.58,3.58,0,0,1,2286,2651.36Zm-6.39,0a2.65,2.65,0,1,0,2.65-2.73A2.59,2.59,0,0,0,2279.6,2651.38Z" transform="translate(-2185.59 -2572.95)"/><path class="cls-2" d="M2300.24,2650.51v4.55h-1.09v-4.26a1.9,1.9,0,0,0-2-2.09,2.44,2.44,0,0,0-2.41,2.72v3.63h-1.11v-4.26a1.89,1.89,0,0,0-2-2.09,2.45,2.45,0,0,0-2.42,2.72v3.63H2288v-7.38h1.08v1.67a2.83,2.83,0,0,1,2.82-1.71,2.51,2.51,0,0,1,2.65,1.93,2.85,2.85,0,0,1,2.91-1.93A2.59,2.59,0,0,1,2300.24,2650.51Z" transform="translate(-2185.59 -2572.95)"/><path class="cls-2" d="M2309.16,2651.8h-6a2.59,2.59,0,0,0,2.68,2.35,3.08,3.08,0,0,0,2.28-.92l0.6,0.64a3.88,3.88,0,0,1-3,1.23,3.73,3.73,0,0,1,0-7.45C2308.09,2647.64,2309.27,2649.29,2309.16,2651.8Zm-1-.9a2.3,2.3,0,0,0-2.47-2.31,2.49,2.49,0,0,0-2.58,2.31h5Z" transform="translate(-2185.59 -2572.95)"/><path class="cls-2" d="M2322.69,2651.39a3.45,3.45,0,0,1-3.52,3.71,3.09,3.09,0,0,1-2.87-1.62v1.58h-1.09v-10.39h1.09v4.61a3.07,3.07,0,0,1,2.84-1.64A3.49,3.49,0,0,1,2322.69,2651.39Zm-1.11,0a2.64,2.64,0,1,0-2.63,2.75A2.6,2.6,0,0,0,2321.59,2651.36Z" transform="translate(-2185.59 -2572.95)"/><path class="cls-2" d="M2329.33,2653.93a3.18,3.18,0,0,1-2.7,1.19,2.29,2.29,0,0,1-2.51-2.25c0-1.29,1-2.1,2.76-2.12h2.42v-0.43a1.68,1.68,0,0,0-2-1.72,4.09,4.09,0,0,0-2.34.84l-0.46-.8a5,5,0,0,1,3-1c1.82,0,2.83,1,2.84,2.55v4.88h-1.06v-1.13Zm0-1.42v-0.88H2327c-1.23,0-1.88.38-1.88,1.19a1.45,1.45,0,0,0,1.7,1.34A2.39,2.39,0,0,0,2329.31,2652.51Z" transform="translate(-2185.59 -2572.95)"/><path class="cls-2" d="M2337.28,2648.31l-0.42.87a3.9,3.9,0,0,0-2-.6c-0.83,0-1.46.29-1.46,1,0,1.64,4.12.8,4.12,3.45,0,1.46-1.29,2.1-2.7,2.1a4.17,4.17,0,0,1-2.83-1l0.42-.83a3.73,3.73,0,0,0,2.45.94c0.87,0,1.57-.32,1.58-1,0-1.78-4.09-.87-4.08-3.49,0-1.42,1.22-2,2.56-2A4.27,4.27,0,0,1,2337.28,2648.31Z" transform="translate(-2185.59 -2572.95)"/><path class="cls-2" d="M2340.69,2645.56a0.72,0.72,0,1,1-.71-0.76A0.72,0.72,0,0,1,2340.69,2645.56Zm-1.25,9.5v-7.38h1.08v7.38h-1.08Z" transform="translate(-2185.59 -2572.95)"/><path class="cls-2" d="M2349.08,2648.74l-0.6.77a3.12,3.12,0,0,0-2.2-.85,2.73,2.73,0,0,0,0,5.45,2.88,2.88,0,0,0,2.28-1l0.63,0.67a3.71,3.71,0,0,1-3,1.27,3.73,3.73,0,0,1,0-7.45A3.78,3.78,0,0,1,2349.08,2648.74Z" transform="translate(-2185.59 -2572.95)"/><path class="cls-2" d="M2356.54,2645.56a0.72,0.72,0,1,1-.71-0.76A0.72,0.72,0,0,1,2356.54,2645.56Zm-1.25,9.5v-7.38h1.08v7.38h-1.08Z" transform="translate(-2185.59 -2572.95)"/><path class="cls-2" d="M2365.92,2650.51v4.55h-1.09v-4.26a1.91,1.91,0,0,0-2.09-2.07,2.4,2.4,0,0,0-2.48,2.37v4h-1.09v-7.38h1.09v1.63a2.91,2.91,0,0,1,2.86-1.67A2.61,2.61,0,0,1,2365.92,2650.51Z" transform="translate(-2185.59 -2572.95)"/><path class="cls-2" d="M2369.8,2646.95v1h2.12v0.9h-2.12v6.26h-1.08v-6.26h-1v-0.9h1v-0.81a2.32,2.32,0,0,1,2.37-2.48,2.77,2.77,0,0,1,1.58.52l-0.45.88a2,2,0,0,0-1.12-.38A1.24,1.24,0,0,0,2369.8,2646.95Z" transform="translate(-2185.59 -2572.95)"/><path class="cls-2" d="M2379.77,2651.36a3.74,3.74,0,1,1-3.74-3.71A3.58,3.58,0,0,1,2379.77,2651.36Zm-6.39,0a2.65,2.65,0,1,0,2.65-2.73A2.59,2.59,0,0,0,2373.38,2651.38Z" transform="translate(-2185.59 -2572.95)"/><path class="cls-2" d="M2382.92,2649.32a2.76,2.76,0,0,1,2.65-1.68v1.11a2.45,2.45,0,0,0-2.65,2.4v3.92h-1.09v-7.38h1.09v1.64Z" transform="translate(-2185.59 -2572.95)"/><path class="cls-2" d="M2399.37,2650.51v4.55h-1.09v-4.26a1.9,1.9,0,0,0-2-2.09,2.44,2.44,0,0,0-2.41,2.72v3.63h-1.11v-4.26a1.89,1.89,0,0,0-2-2.09,2.45,2.45,0,0,0-2.42,2.72v3.63h-1.08v-7.38h1.08v1.67a2.83,2.83,0,0,1,2.82-1.71,2.51,2.51,0,0,1,2.65,1.93,2.85,2.85,0,0,1,2.91-1.93A2.59,2.59,0,0,1,2399.37,2650.51Z" transform="translate(-2185.59 -2572.95)"/><path class="cls-2" d="M2406.51,2653.93a3.18,3.18,0,0,1-2.7,1.19,2.29,2.29,0,0,1-2.51-2.25c0-1.29,1-2.1,2.76-2.12h2.42v-0.43a1.68,1.68,0,0,0-2-1.72,4.09,4.09,0,0,0-2.34.84l-0.46-.8a5,5,0,0,1,3-1c1.82,0,2.83,1,2.84,2.55v4.88h-1.06v-1.13Zm0-1.42v-0.88h-2.3c-1.23,0-1.88.38-1.88,1.19a1.45,1.45,0,0,0,1.7,1.34A2.39,2.39,0,0,0,2406.5,2652.51Z" transform="translate(-2185.59 -2572.95)"/><path class="cls-2" d="M2414,2654.56a3.09,3.09,0,0,1-1.67.56,1.81,1.81,0,0,1-1.88-2.1v-4.22h-1.06v-0.88h1.06V2646h1.08v1.95h2.34v0.9h-2.34v4c0,0.9.35,1.23,1,1.23a2.24,2.24,0,0,0,1.18-.38Z" transform="translate(-2185.59 -2572.95)"/><path class="cls-2" d="M2417,2645.56a0.72,0.72,0,1,1-.71-0.76A0.72,0.72,0,0,1,2417,2645.56Zm-1.25,9.5v-7.38h1.08v7.38h-1.08Z" transform="translate(-2185.59 -2572.95)"/><path class="cls-2" d="M2426.36,2651.36a3.74,3.74,0,1,1-3.74-3.71A3.58,3.58,0,0,1,2426.36,2651.36Zm-6.39,0a2.65,2.65,0,1,0,2.65-2.73A2.59,2.59,0,0,0,2420,2651.38Z" transform="translate(-2185.59 -2572.95)"/><path class="cls-2" d="M2435.17,2650.51v4.55h-1.09v-4.26a1.91,1.91,0,0,0-2.09-2.07,2.4,2.4,0,0,0-2.48,2.37v4h-1.09v-7.38h1.09v1.63a2.91,2.91,0,0,1,2.86-1.67A2.61,2.61,0,0,1,2435.17,2650.51Z" transform="translate(-2185.59 -2572.95)"/><path class="cls-2" d="M2194.47,2942.13v-8.08l-3.57,7h-0.67l-3.56-7v8.08h-1.07v-9.81H2187l3.59,7.06,3.57-7.06h1.37v9.81h-1Z" transform="translate(-2185.59 -2572.95)"/><path class="cls-2" d="M2205.21,2938.44a3.74,3.74,0,1,1-3.74-3.71A3.58,3.58,0,0,1,2205.21,2938.44Zm-6.39,0a2.65,2.65,0,1,0,2.65-2.73A2.59,2.59,0,0,0,2198.82,2938.45Z" transform="translate(-2185.59 -2572.95)"/><path class="cls-2" d="M2208.35,2936.39a2.76,2.76,0,0,1,2.65-1.68v1.11a2.45,2.45,0,0,0-2.65,2.4v3.92h-1.09v-7.38h1.09v1.64Z" transform="translate(-2185.59 -2572.95)"/><path class="cls-2" d="M2219,2938.87h-6a2.59,2.59,0,0,0,2.68,2.35,3.08,3.08,0,0,0,2.28-.92l0.6,0.64a3.88,3.88,0,0,1-3,1.23,3.73,3.73,0,0,1,0-7.45C2217.91,2934.71,2219.08,2936.36,2219,2938.87Zm-1-.9a2.3,2.3,0,0,0-2.47-2.31,2.49,2.49,0,0,0-2.58,2.31h5Z" transform="translate(-2185.59 -2572.95)"/><path class="cls-2" d="M2226,2936.39a2.76,2.76,0,0,1,2.65-1.68v1.11a2.45,2.45,0,0,0-2.65,2.4v3.92H2225v-7.38H2226v1.64Z" transform="translate(-2185.59 -2572.95)"/><path class="cls-2" d="M2236.67,2938.87h-6a2.59,2.59,0,0,0,2.68,2.35,3.08,3.08,0,0,0,2.28-.92l0.6,0.64a3.88,3.88,0,0,1-3,1.23,3.73,3.73,0,0,1,0-7.45C2235.6,2934.71,2236.78,2936.36,2236.67,2938.87Zm-1-.9a2.3,2.3,0,0,0-2.47-2.31,2.49,2.49,0,0,0-2.58,2.31h5Z" transform="translate(-2185.59 -2572.95)"/><path class="cls-2" d="M2238.75,2942.13v-10.39h1.09v10.39h-1.09Z" transform="translate(-2185.59 -2572.95)"/><path class="cls-2" d="M2244,2932.64a0.72,0.72,0,1,1-.71-0.76A0.72,0.72,0,0,1,2244,2932.64Zm-1.25,9.5v-7.38h1.08v7.38h-1.08Z" transform="translate(-2185.59 -2572.95)"/><path class="cls-2" d="M2251.17,2941a3.18,3.18,0,0,1-2.7,1.19,2.29,2.29,0,0,1-2.51-2.25c0-1.29,1-2.1,2.76-2.12h2.42v-0.43a1.68,1.68,0,0,0-2-1.72,4.09,4.09,0,0,0-2.34.84l-0.46-.8a5,5,0,0,1,3-1c1.82,0,2.83,1,2.84,2.55v4.88h-1.06V2941Zm0-1.42v-0.88h-2.3c-1.23,0-1.88.38-1.88,1.19a1.45,1.45,0,0,0,1.7,1.34A2.39,2.39,0,0,0,2251.15,2939.58Z" transform="translate(-2185.59 -2572.95)"/><path class="cls-2" d="M2262.36,2938.46a3.45,3.45,0,0,1-3.52,3.71,3.09,3.09,0,0,1-2.87-1.62v1.58h-1.09v-10.39H2256v4.61a3.07,3.07,0,0,1,2.84-1.64A3.49,3.49,0,0,1,2262.36,2938.46Zm-1.11,0a2.64,2.64,0,1,0-2.63,2.75A2.6,2.6,0,0,0,2261.25,2938.44Z" transform="translate(-2185.59 -2572.95)"/><path class="cls-2" d="M2265.66,2932.64a0.72,0.72,0,1,1-.71-0.76A0.72,0.72,0,0,1,2265.66,2932.64Zm-1.25,9.5v-7.38h1.08v7.38h-1.08Z" transform="translate(-2185.59 -2572.95)"/><path class="cls-2" d="M2268.36,2942.13v-10.39h1.09v10.39h-1.09Z" transform="translate(-2185.59 -2572.95)"/><path class="cls-2" d="M2273.57,2932.64a0.72,0.72,0,1,1-.71-0.76A0.72,0.72,0,0,1,2273.57,2932.64Zm-1.25,9.5v-7.38h1.08v7.38h-1.08Z" transform="translate(-2185.59 -2572.95)"/><path class="cls-2" d="M2280,2941.63a3.09,3.09,0,0,1-1.67.56,1.81,1.81,0,0,1-1.88-2.1v-4.22h-1.06V2935h1.06V2933h1.08V2935h2.34v0.9h-2.34v4c0,0.9.35,1.23,1,1.23a2.24,2.24,0,0,0,1.18-.38Z" transform="translate(-2185.59 -2572.95)"/><path class="cls-2" d="M2284.15,2943.18a2.38,2.38,0,0,1-2.21,1.72,2.34,2.34,0,0,1-1.55-.55l0.46-.91a1.75,1.75,0,0,0,1,.35,1.47,1.47,0,0,0,1.34-1l0.31-.69-3.05-7.33h1.15l2.45,6.09,2.34-6.09h1.12Z" transform="translate(-2185.59 -2572.95)"/><path class="cls-2" d="M2299.89,2942.13l-2.17-6-2.16,6h-1.13l-2.76-7.38h1.15L2295,2941l2.14-6.25h1.15l2.17,6.25,2.16-6.25h1.13l-2.73,7.38h-1.13Z" transform="translate(-2185.59 -2572.95)"/><path class="cls-2" d="M2306.42,2932.64a0.72,0.72,0,1,1-.71-0.76A0.72,0.72,0,0,1,2306.42,2932.64Zm-1.25,9.5v-7.38h1.08v7.38h-1.08Z" transform="translate(-2185.59 -2572.95)"/><path class="cls-2" d="M2312.87,2941.63a3.09,3.09,0,0,1-1.67.56,1.81,1.81,0,0,1-1.88-2.1v-4.22h-1.06V2935h1.06V2933h1.08V2935h2.34v0.9h-2.34v4c0,0.9.35,1.23,1,1.23a2.24,2.24,0,0,0,1.18-.38Z" transform="translate(-2185.59 -2572.95)"/><path class="cls-2" d="M2321.49,2937.58v4.55h-1.09v-4.26a1.91,1.91,0,0,0-2.09-2.07,2.45,2.45,0,0,0-2.49,2.7v3.63h-1.09v-10.39h1.09v4.66a2.89,2.89,0,0,1,2.87-1.69A2.61,2.61,0,0,1,2321.49,2937.58Z" transform="translate(-2185.59 -2572.95)"/><path class="cls-2" d="M2334.47,2941.36a3.39,3.39,0,0,1-3.71,3.52,5,5,0,0,1-3-1.06l0.5-.84a3.79,3.79,0,0,0,2.48.94,2.43,2.43,0,0,0,2.66-2.52v-1.12a2.91,2.91,0,0,1-2.72,1.54,3.56,3.56,0,0,1,0-7.1,3,3,0,0,1,2.75,1.54v-1.5h1.09v6.61Zm-1.09-3.08a2.53,2.53,0,1,0-2.52,2.61A2.47,2.47,0,0,0,2333.38,2938.28Z" transform="translate(-2185.59 -2572.95)"/><path class="cls-2" d="M2338.17,2936.39a2.76,2.76,0,0,1,2.65-1.68v1.11a2.45,2.45,0,0,0-2.65,2.4v3.92h-1.09v-7.38h1.09v1.64Z" transform="translate(-2185.59 -2572.95)"/><path class="cls-2" d="M2348.79,2938.87h-6a2.59,2.59,0,0,0,2.68,2.35,3.08,3.08,0,0,0,2.28-.92l0.6,0.64a3.88,3.88,0,0,1-3,1.23,3.73,3.73,0,0,1,0-7.45C2347.73,2934.71,2348.9,2936.36,2348.79,2938.87Zm-1-.9a2.3,2.3,0,0,0-2.47-2.31,2.49,2.49,0,0,0-2.58,2.31h5Z" transform="translate(-2185.59 -2572.95)"/><path class="cls-2" d="M2355.38,2941a3.18,3.18,0,0,1-2.7,1.19,2.29,2.29,0,0,1-2.51-2.25c0-1.29,1-2.1,2.76-2.12h2.42v-0.43a1.68,1.68,0,0,0-2-1.72,4.09,4.09,0,0,0-2.34.84l-0.46-.8a5,5,0,0,1,3-1c1.82,0,2.83,1,2.84,2.55v4.88h-1.06V2941Zm0-1.42v-0.88h-2.3c-1.23,0-1.88.38-1.88,1.19a1.45,1.45,0,0,0,1.7,1.34A2.39,2.39,0,0,0,2355.37,2939.58Z" transform="translate(-2185.59 -2572.95)"/><path class="cls-2" d="M2362.83,2941.63a3.09,3.09,0,0,1-1.67.56,1.81,1.81,0,0,1-1.88-2.1v-4.22h-1.06V2935h1.06V2933h1.08V2935h2.34v0.9h-2.34v4c0,0.9.35,1.23,1,1.23a2.24,2.24,0,0,0,1.18-.38Z" transform="translate(-2185.59 -2572.95)"/><path class="cls-2" d="M2370.87,2938.87h-6a2.59,2.59,0,0,0,2.68,2.35,3.08,3.08,0,0,0,2.28-.92l0.6,0.64a3.88,3.88,0,0,1-3,1.23,3.73,3.73,0,0,1,0-7.45C2369.8,2934.71,2371,2936.36,2370.87,2938.87Zm-1-.9a2.3,2.3,0,0,0-2.47-2.31,2.49,2.49,0,0,0-2.58,2.31h5Z" transform="translate(-2185.59 -2572.95)"/><path class="cls-2" d="M2374,2936.39a2.76,2.76,0,0,1,2.65-1.68v1.11a2.45,2.45,0,0,0-2.65,2.4v3.92h-1.09v-7.38H2374v1.64Z" transform="translate(-2185.59 -2572.95)"/><path class="cls-2" d="M2386.52,2935.38l-0.42.87a3.9,3.9,0,0,0-2-.6c-0.83,0-1.46.29-1.46,1,0,1.64,4.12.8,4.12,3.45,0,1.46-1.29,2.1-2.7,2.1a4.17,4.17,0,0,1-2.83-1l0.42-.83a3.73,3.73,0,0,0,2.45.94c0.87,0,1.57-.32,1.58-1,0-1.78-4.09-.87-4.08-3.49,0-1.42,1.22-2,2.56-2A4.27,4.27,0,0,1,2386.52,2935.38Z" transform="translate(-2185.59 -2572.95)"/><path class="cls-2" d="M2395.09,2942.13H2394v-1.67a2.81,2.81,0,0,1-2.8,1.71,2.6,2.6,0,0,1-2.76-2.87v-4.55h1.09V2939a1.89,1.89,0,0,0,2,2.07,2.43,2.43,0,0,0,2.42-2.7v-3.63h1.09v7.38Z" transform="translate(-2185.59 -2572.95)"/><path class="cls-2" d="M2405.43,2938.46a3.45,3.45,0,0,1-3.52,3.71,3.09,3.09,0,0,1-2.87-1.62v4.3H2398v-10.1H2399v1.6a3.07,3.07,0,0,1,2.84-1.64A3.49,3.49,0,0,1,2405.43,2938.46Zm-1.11,0a2.64,2.64,0,1,0-2.63,2.75A2.6,2.6,0,0,0,2404.33,2938.44Z" transform="translate(-2185.59 -2572.95)"/><path class="cls-2" d="M2415,2938.46a3.45,3.45,0,0,1-3.52,3.71,3.09,3.09,0,0,1-2.87-1.62v4.3h-1.09v-10.1h1.09v1.6a3.07,3.07,0,0,1,2.84-1.64A3.49,3.49,0,0,1,2415,2938.46Zm-1.11,0a2.64,2.64,0,1,0-2.63,2.75A2.6,2.6,0,0,0,2413.93,2938.44Z" transform="translate(-2185.59 -2572.95)"/><path class="cls-2" d="M2423.83,2938.44a3.74,3.74,0,1,1-3.74-3.71A3.58,3.58,0,0,1,2423.83,2938.44Zm-6.39,0a2.65,2.65,0,1,0,2.65-2.73A2.59,2.59,0,0,0,2417.44,2938.45Z" transform="translate(-2185.59 -2572.95)"/><path class="cls-2" d="M2427,2936.39a2.76,2.76,0,0,1,2.65-1.68v1.11a2.45,2.45,0,0,0-2.65,2.4v3.92h-1.09v-7.38H2427v1.64Z" transform="translate(-2185.59 -2572.95)"/><path class="cls-2" d="M2435,2941.63a3.09,3.09,0,0,1-1.67.56,1.81,1.81,0,0,1-1.88-2.1v-4.22h-1.06V2935h1.06V2933h1.08V2935h2.34v0.9h-2.34v4c0,0.9.35,1.23,1,1.23a2.24,2.24,0,0,0,1.18-.38Z" transform="translate(-2185.59 -2572.95)"/><path class="cls-2" d="M2498.78,2860v8.73h-1.12V2860h-3.19v-1.08H2502V2860h-3.21Z" transform="translate(-2185.59 -2572.95)"/><path class="cls-2" d="M2504,2863a2.76,2.76,0,0,1,2.65-1.68v1.11a2.45,2.45,0,0,0-2.65,2.4v3.92h-1.09v-7.38H2504V2863Z" transform="translate(-2185.59 -2572.95)"/><path class="cls-2" d="M2512.47,2867.62a3.18,3.18,0,0,1-2.7,1.19,2.29,2.29,0,0,1-2.51-2.25c0-1.29,1-2.1,2.76-2.12h2.42V2864a1.68,1.68,0,0,0-2-1.72,4.09,4.09,0,0,0-2.34.84l-0.46-.8a5,5,0,0,1,3-1c1.82,0,2.83,1,2.84,2.55v4.88h-1.06v-1.13Zm0-1.42v-0.88h-2.3c-1.23,0-1.88.38-1.88,1.19a1.45,1.45,0,0,0,1.7,1.34A2.39,2.39,0,0,0,2512.46,2866.2Z" transform="translate(-2185.59 -2572.95)"/><path class="cls-2" d="M2522.89,2868.75h-1.09v-1.58a3.08,3.08,0,0,1-2.87,1.64,3.75,3.75,0,0,1,0-7.49,3.09,3.09,0,0,1,2.89,1.65v-4.61h1.09v10.39Zm-1.09-3.67a2.67,2.67,0,1,0-2.66,2.75A2.62,2.62,0,0,0,2521.79,2865.08Z" transform="translate(-2185.59 -2572.95)"/><path class="cls-2" d="M2532.11,2865.49h-6a2.59,2.59,0,0,0,2.68,2.35,3.08,3.08,0,0,0,2.28-.92l0.6,0.64a3.88,3.88,0,0,1-3,1.23,3.73,3.73,0,0,1,0-7.45C2531,2861.33,2532.22,2863,2532.11,2865.49Zm-1-.9a2.3,2.3,0,0,0-2.47-2.31,2.49,2.49,0,0,0-2.58,2.31h5Z" transform="translate(-2185.59 -2572.95)"/><path class="cls-2" d="M2550.3,2864.2v4.55h-1.09v-4.26a1.9,1.9,0,0,0-2-2.09,2.44,2.44,0,0,0-2.41,2.72v3.63h-1.11v-4.26a1.89,1.89,0,0,0-2-2.09,2.45,2.45,0,0,0-2.42,2.72v3.63h-1.08v-7.38h1.08V2863a2.83,2.83,0,0,1,2.82-1.71,2.51,2.51,0,0,1,2.65,1.93,2.85,2.85,0,0,1,2.91-1.93A2.59,2.59,0,0,1,2550.3,2864.2Z" transform="translate(-2185.59 -2572.95)"/><path class="cls-2" d="M2559.59,2865.05a3.74,3.74,0,1,1-3.74-3.71A3.58,3.58,0,0,1,2559.59,2865.05Zm-6.39,0a2.65,2.65,0,1,0,2.65-2.73A2.59,2.59,0,0,0,2553.21,2865.07Z" transform="translate(-2185.59 -2572.95)"/><path class="cls-2" d="M2562.74,2863a2.76,2.76,0,0,1,2.65-1.68v1.11a2.45,2.45,0,0,0-2.65,2.4v3.92h-1.09v-7.38h1.09V2863Z" transform="translate(-2185.59 -2572.95)"/><path class="cls-2" d="M2573.36,2865.49h-6a2.59,2.59,0,0,0,2.68,2.35,3.08,3.08,0,0,0,2.28-.92l0.6,0.64a3.88,3.88,0,0,1-3,1.23,3.73,3.73,0,0,1,0-7.45C2572.29,2861.33,2573.47,2863,2573.36,2865.49Zm-1-.9a2.3,2.3,0,0,0-2.47-2.31,2.49,2.49,0,0,0-2.58,2.31h5Z" transform="translate(-2185.59 -2572.95)"/><path class="cls-2" d="M2591.54,2864.2v4.55h-1.09v-4.26a1.9,1.9,0,0,0-2-2.09,2.44,2.44,0,0,0-2.41,2.72v3.63h-1.11v-4.26a1.89,1.89,0,0,0-2-2.09,2.45,2.45,0,0,0-2.42,2.72v3.63h-1.08v-7.38h1.08V2863a2.83,2.83,0,0,1,2.82-1.71,2.51,2.51,0,0,1,2.65,1.93,2.85,2.85,0,0,1,2.91-1.93A2.59,2.59,0,0,1,2591.54,2864.2Z" transform="translate(-2185.59 -2572.95)"/><path class="cls-2" d="M2598.68,2867.62a3.18,3.18,0,0,1-2.7,1.19,2.29,2.29,0,0,1-2.51-2.25c0-1.29,1-2.1,2.76-2.12h2.42V2864a1.68,1.68,0,0,0-2-1.72,4.09,4.09,0,0,0-2.34.84l-0.46-.8a5,5,0,0,1,3-1c1.82,0,2.83,1,2.84,2.55v4.88h-1.06v-1.13Zm0-1.42v-0.88h-2.3c-1.23,0-1.88.38-1.88,1.19a1.45,1.45,0,0,0,1.7,1.34A2.39,2.39,0,0,0,2598.67,2866.2Z" transform="translate(-2185.59 -2572.95)"/><path class="cls-2" d="M2603.41,2863a2.76,2.76,0,0,1,2.65-1.68v1.11a2.45,2.45,0,0,0-2.65,2.4v3.92h-1.09v-7.38h1.09V2863Z" transform="translate(-2185.59 -2572.95)"/><path class="cls-2" d="M2608.83,2866.64v2.12h-1.09v-10.39h1.09v6.79l3.8-3.78h1.29l-2.76,2.86,3.05,4.52h-1.3l-2.52-3.73Z" transform="translate(-2185.59 -2572.95)"/><path class="cls-2" d="M2621.87,2865.49h-6a2.59,2.59,0,0,0,2.68,2.35,3.08,3.08,0,0,0,2.28-.92l0.6,0.64a3.88,3.88,0,0,1-3,1.23,3.73,3.73,0,0,1,0-7.45C2620.8,2861.33,2622,2863,2621.87,2865.49Zm-1-.9a2.3,2.3,0,0,0-2.47-2.31,2.49,2.49,0,0,0-2.58,2.31h5Z" transform="translate(-2185.59 -2572.95)"/><path class="cls-2" d="M2627.69,2868.25a3.09,3.09,0,0,1-1.67.56,1.81,1.81,0,0,1-1.88-2.1v-4.22h-1.06v-0.88h1.06v-1.95h1.08v1.95h2.34v0.9h-2.34v4c0,0.9.35,1.23,1,1.23a2.24,2.24,0,0,0,1.18-.38Z" transform="translate(-2185.59 -2572.95)"/><path class="cls-2" d="M2633.79,2862l-0.42.87a3.9,3.9,0,0,0-2-.6c-0.83,0-1.46.29-1.46,1,0,1.64,4.12.8,4.12,3.45,0,1.46-1.29,2.1-2.7,2.1a4.17,4.17,0,0,1-2.83-1l0.42-.83a3.73,3.73,0,0,0,2.45.94c0.87,0,1.57-.32,1.58-1,0-1.78-4.09-.87-4.08-3.49,0-1.42,1.22-2,2.56-2A4.27,4.27,0,0,1,2633.79,2862Z" transform="translate(-2185.59 -2572.95)"/><path class="cls-2" d="M2641.24,2860.64v1h2.12v0.9h-2.12v6.26h-1.08v-6.26h-1v-0.9h1v-0.81a2.32,2.32,0,0,1,2.37-2.48,2.77,2.77,0,0,1,1.58.52l-0.45.88a2,2,0,0,0-1.12-.38A1.24,1.24,0,0,0,2641.24,2860.64Z" transform="translate(-2185.59 -2572.95)"/><path class="cls-2" d="M2651.21,2865.05a3.74,3.74,0,1,1-3.74-3.71A3.58,3.58,0,0,1,2651.21,2865.05Zm-6.39,0a2.65,2.65,0,1,0,2.65-2.73A2.59,2.59,0,0,0,2644.82,2865.07Z" transform="translate(-2185.59 -2572.95)"/><path class="cls-2" d="M2654.36,2863a2.76,2.76,0,0,1,2.65-1.68v1.11a2.45,2.45,0,0,0-2.65,2.4v3.92h-1.09v-7.38h1.09V2863Z" transform="translate(-2185.59 -2572.95)"/><path class="cls-2" d="M2662.66,2868.75v-10.39h1.09v10.39h-1.09Z" transform="translate(-2185.59 -2572.95)"/><path class="cls-2" d="M2673,2865.49h-6a2.59,2.59,0,0,0,2.68,2.35,3.08,3.08,0,0,0,2.28-.92l0.6,0.64a3.88,3.88,0,0,1-3,1.23,3.73,3.73,0,0,1,0-7.45C2671.92,2861.33,2673.09,2863,2673,2865.49Zm-1-.9a2.3,2.3,0,0,0-2.47-2.31,2.49,2.49,0,0,0-2.58,2.31h5Z" transform="translate(-2185.59 -2572.95)"/><path class="cls-2" d="M2679.31,2862l-0.42.87a3.9,3.9,0,0,0-2-.6c-0.83,0-1.46.29-1.46,1,0,1.64,4.12.8,4.12,3.45,0,1.46-1.29,2.1-2.7,2.1a4.17,4.17,0,0,1-2.83-1l0.42-.83a3.73,3.73,0,0,0,2.45.94c0.87,0,1.57-.32,1.58-1,0-1.78-4.09-.87-4.08-3.49,0-1.42,1.22-2,2.56-2A4.27,4.27,0,0,1,2679.31,2862Z" transform="translate(-2185.59 -2572.95)"/><path class="cls-2" d="M2685.79,2862l-0.42.87a3.9,3.9,0,0,0-2-.6c-0.83,0-1.46.29-1.46,1,0,1.64,4.12.8,4.12,3.45,0,1.46-1.29,2.1-2.7,2.1a4.17,4.17,0,0,1-2.83-1l0.42-.83a3.73,3.73,0,0,0,2.45.94c0.87,0,1.57-.32,1.58-1,0-1.78-4.09-.87-4.08-3.49,0-1.42,1.22-2,2.56-2A4.27,4.27,0,0,1,2685.79,2862Z" transform="translate(-2185.59 -2572.95)"/><path class="cls-2" d="M2499.78,2713.47h-1.11v-3.32l-3.8-6.49H2496l3.18,5.11,3.14-5.11h1.15l-3.72,6.44v3.36Z" transform="translate(-2185.59 -2572.95)"/><path class="cls-2" d="M2511.09,2709.77a3.74,3.74,0,1,1-3.74-3.71A3.58,3.58,0,0,1,2511.09,2709.77Zm-6.39,0a2.65,2.65,0,1,0,2.65-2.73A2.59,2.59,0,0,0,2504.7,2709.78Z" transform="translate(-2185.59 -2572.95)"/><path class="cls-2" d="M2519.55,2713.47h-1.09v-1.67a2.81,2.81,0,0,1-2.8,1.71,2.6,2.6,0,0,1-2.76-2.87v-4.55H2514v4.26a1.89,1.89,0,0,0,2,2.07,2.43,2.43,0,0,0,2.42-2.7v-3.63h1.09v7.38Z" transform="translate(-2185.59 -2572.95)"/><path class="cls-2" d="M2533.27,2713.47l-2.17-6-2.16,6h-1.13l-2.76-7.38h1.15l2.18,6.25,2.14-6.25h1.15l2.17,6.25,2.16-6.25h1.13l-2.73,7.38h-1.13Z" transform="translate(-2185.59 -2572.95)"/><path class="cls-2" d="M2539.8,2704a0.72,0.72,0,1,1-.71-0.76A0.72,0.72,0,0,1,2539.8,2704Zm-1.25,9.5v-7.38h1.08v7.38h-1.08Z" transform="translate(-2185.59 -2572.95)"/><path class="cls-2" d="M2542.5,2713.47v-10.39h1.09v10.39h-1.09Z" transform="translate(-2185.59 -2572.95)"/><path class="cls-2" d="M2546.53,2713.47v-10.39h1.09v10.39h-1.09Z" transform="translate(-2185.59 -2572.95)"/><path class="cls-2" d="M2562,2709.8a3.45,3.45,0,0,1-3.52,3.71,3.09,3.09,0,0,1-2.87-1.62v1.58h-1.09v-10.39h1.09v4.61a3.07,3.07,0,0,1,2.84-1.64A3.49,3.49,0,0,1,2562,2709.8Zm-1.11,0a2.64,2.64,0,1,0-2.63,2.75A2.6,2.6,0,0,0,2560.92,2709.77Z" transform="translate(-2185.59 -2572.95)"/><path class="cls-2" d="M2570.44,2710.2h-6a2.59,2.59,0,0,0,2.68,2.35,3.08,3.08,0,0,0,2.28-.92l0.6,0.64a3.88,3.88,0,0,1-3,1.23,3.73,3.73,0,0,1,0-7.45C2569.37,2706,2570.55,2707.7,2570.44,2710.2Zm-1-.9A2.3,2.3,0,0,0,2567,2707a2.49,2.49,0,0,0-2.58,2.31h5Z" transform="translate(-2185.59 -2572.95)"/><path class="cls-2" d="M2582.83,2713.47h-1.09v-1.67a2.81,2.81,0,0,1-2.8,1.71,2.6,2.6,0,0,1-2.76-2.87v-4.55h1.09v4.26a1.89,1.89,0,0,0,2,2.07,2.43,2.43,0,0,0,2.42-2.7v-3.63h1.09v7.38Z" transform="translate(-2185.59 -2572.95)"/><path class="cls-2" d="M2593.17,2709.8a3.45,3.45,0,0,1-3.52,3.71,3.09,3.09,0,0,1-2.87-1.62v4.3h-1.09v-10.1h1.09v1.6a3.07,3.07,0,0,1,2.84-1.64A3.49,3.49,0,0,1,2593.17,2709.8Zm-1.11,0a2.64,2.64,0,1,0-2.63,2.75A2.6,2.6,0,0,0,2592.06,2709.77Z" transform="translate(-2185.59 -2572.95)"/><path class="cls-2" d="M2601.65,2712.7a3.39,3.39,0,0,1-3.71,3.52,5,5,0,0,1-3-1.06l0.5-.84a3.79,3.79,0,0,0,2.48.94,2.43,2.43,0,0,0,2.66-2.52v-1.12a2.91,2.91,0,0,1-2.72,1.54,3.56,3.56,0,0,1,0-7.1,3,3,0,0,1,2.75,1.54v-1.5h1.09v6.61Zm-1.09-3.08a2.53,2.53,0,1,0-2.52,2.61A2.47,2.47,0,0,0,2600.56,2709.62Z" transform="translate(-2185.59 -2572.95)"/><path class="cls-2" d="M2605.36,2707.73A2.76,2.76,0,0,1,2608,2706v1.11a2.45,2.45,0,0,0-2.65,2.4v3.92h-1.09v-7.38h1.09v1.64Z" transform="translate(-2185.59 -2572.95)"/><path class="cls-2" d="M2613.85,2712.33a3.18,3.18,0,0,1-2.7,1.19,2.29,2.29,0,0,1-2.51-2.25c0-1.29,1-2.1,2.76-2.12h2.42v-0.43a1.68,1.68,0,0,0-2-1.72,4.09,4.09,0,0,0-2.34.84l-0.46-.8a5,5,0,0,1,3-1c1.82,0,2.83,1,2.84,2.55v4.88h-1.06v-1.13Zm0-1.42V2710h-2.3c-1.23,0-1.88.38-1.88,1.19a1.45,1.45,0,0,0,1.7,1.34A2.39,2.39,0,0,0,2613.83,2710.92Z" transform="translate(-2185.59 -2572.95)"/><path class="cls-2" d="M2624.27,2713.47h-1.09v-1.58a3.08,3.08,0,0,1-2.87,1.64,3.75,3.75,0,0,1,0-7.49,3.09,3.09,0,0,1,2.88,1.65v-4.61h1.09v10.39Zm-1.09-3.67a2.67,2.67,0,1,0-2.66,2.75A2.62,2.62,0,0,0,2623.17,2709.8Z" transform="translate(-2185.59 -2572.95)"/><path class="cls-2" d="M2633.49,2710.2h-6a2.59,2.59,0,0,0,2.68,2.35,3.08,3.08,0,0,0,2.28-.92l0.6,0.64a3.88,3.88,0,0,1-3,1.23,3.73,3.73,0,0,1,0-7.45C2632.43,2706,2633.6,2707.7,2633.49,2710.2Zm-1-.9A2.3,2.3,0,0,0,2630,2707a2.49,2.49,0,0,0-2.58,2.31h5Z" transform="translate(-2185.59 -2572.95)"/><path class="cls-2" d="M2642.28,2713.47h-1.09v-1.58a3.08,3.08,0,0,1-2.87,1.64,3.75,3.75,0,0,1,0-7.49,3.09,3.09,0,0,1,2.88,1.65v-4.61h1.09v10.39Zm-1.09-3.67a2.67,2.67,0,1,0-2.66,2.75A2.62,2.62,0,0,0,2641.19,2709.8Z" transform="translate(-2185.59 -2572.95)"/><path class="cls-2" d="M2652.93,2713a3.08,3.08,0,0,1-1.67.56,1.81,1.81,0,0,1-1.88-2.1v-4.22h-1.06v-0.88h1.06v-1.95h1.08v1.95h2.34v0.9h-2.34v4c0,0.9.35,1.23,1,1.23a2.24,2.24,0,0,0,1.18-.38Z" transform="translate(-2185.59 -2572.95)"/><path class="cls-2" d="M2661.35,2709.77a3.74,3.74,0,1,1-3.74-3.71A3.58,3.58,0,0,1,2661.35,2709.77Zm-6.39,0a2.65,2.65,0,1,0,2.65-2.73A2.59,2.59,0,0,0,2655,2709.78Z" transform="translate(-2185.59 -2572.95)"/><path class="cls-2" d="M2671.19,2713a3.08,3.08,0,0,1-1.67.56,1.81,1.81,0,0,1-1.88-2.1v-4.22h-1.06v-0.88h1.06v-1.95h1.08v1.95h2.34v0.9h-2.34v4c0,0.9.35,1.23,1,1.23a2.24,2.24,0,0,0,1.18-.38Z" transform="translate(-2185.59 -2572.95)"/><path class="cls-2" d="M2679.82,2708.92v4.55h-1.09v-4.26a1.91,1.91,0,0,0-2.09-2.07,2.45,2.45,0,0,0-2.49,2.7v3.63h-1.09v-10.39h1.09v4.66A2.89,2.89,0,0,1,2677,2706,2.61,2.61,0,0,1,2679.82,2708.92Z" transform="translate(-2185.59 -2572.95)"/><path class="cls-2" d="M2688.75,2710.2h-6a2.59,2.59,0,0,0,2.68,2.35,3.08,3.08,0,0,0,2.28-.92l0.6,0.64a3.88,3.88,0,0,1-3,1.23,3.73,3.73,0,0,1,0-7.45C2687.68,2706,2688.86,2707.7,2688.75,2710.2Zm-1-.9a2.3,2.3,0,0,0-2.47-2.31,2.49,2.49,0,0,0-2.58,2.31h5Z" transform="translate(-2185.59 -2572.95)"/><path class="cls-2" d="M2497.42,2728.74V2732h4.94V2733h-4.94v3.36h5.71v1.06h-6.84v-9.81H2503v1.08h-5.53Z" transform="translate(-2185.59 -2572.95)"/><path class="cls-2" d="M2508.54,2728.74v8.73h-1.12v-8.73h-3.19v-1.08h7.52v1.08h-3.21Z" transform="translate(-2185.59 -2572.95)"/><path class="cls-2" d="M2520.93,2737.47h-1.35l-3-4.1-3,4.1h-1.32l3.6-5-3.35-4.76h1.32l2.7,3.78,2.73-3.78h1.32l-3.33,4.71Z" transform="translate(-2185.59 -2572.95)"/><path class="cls-2" d="M2535.81,2737.47v-8.08l-3.57,7h-0.67l-3.56-7v8.08h-1.07v-9.81h1.39l3.59,7.06,3.57-7.06h1.37v9.81h-1Z" transform="translate(-2185.59 -2572.95)"/><path class="cls-2" d="M2543,2728.74v8.73h-1.12v-8.73h-3.19v-1.08h7.52v1.08H2543Z" transform="translate(-2185.59 -2572.95)"/><path class="cls-2" d="M2551.58,2733.81v-2.59h1.05v2.59h1.48v1.08h-1.48v2.58h-1.05v-2.58h-4.71V2734l3.52-6.3h1.11l-3.42,6.15h3.5Z" transform="translate(-2185.59 -2572.95)"/><path class="cls-2" d="M2563.1,2728.74v8.73H2562v-8.73h-3.19v-1.08h7.52v1.08h-3.21Z" transform="translate(-2185.59 -2572.95)"/><path class="cls-2" d="M2568.3,2731.73A2.76,2.76,0,0,1,2571,2730v1.11a2.45,2.45,0,0,0-2.65,2.4v3.92h-1.09v-7.38h1.09v1.64Z" transform="translate(-2185.59 -2572.95)"/><path class="cls-2" d="M2576.79,2736.33a3.18,3.18,0,0,1-2.7,1.19,2.29,2.29,0,0,1-2.51-2.25c0-1.29,1-2.1,2.76-2.12h2.42v-0.43a1.68,1.68,0,0,0-2-1.72,4.09,4.09,0,0,0-2.34.84l-0.46-.8a5,5,0,0,1,3-1c1.82,0,2.83,1,2.84,2.55v4.88h-1.06v-1.13Zm0-1.42V2734h-2.3c-1.23,0-1.88.38-1.88,1.19a1.45,1.45,0,0,0,1.7,1.34A2.39,2.39,0,0,0,2576.78,2734.92Z" transform="translate(-2185.59 -2572.95)"/><path class="cls-2" d="M2587.21,2737.47h-1.09v-1.58a3.08,3.08,0,0,1-2.87,1.64,3.75,3.75,0,0,1,0-7.49,3.09,3.09,0,0,1,2.89,1.65v-4.61h1.09v10.39Zm-1.09-3.67a2.67,2.67,0,1,0-2.66,2.75A2.62,2.62,0,0,0,2586.12,2733.8Z" transform="translate(-2185.59 -2572.95)"/><path class="cls-2" d="M2591.32,2728a0.72,0.72,0,1,1-.71-0.76A0.72,0.72,0,0,1,2591.32,2728Zm-1.25,9.5v-7.38h1.08v7.38h-1.08Z" transform="translate(-2185.59 -2572.95)"/><path class="cls-2" d="M2600.7,2732.92v4.55h-1.09v-4.26a1.91,1.91,0,0,0-2.09-2.07,2.4,2.4,0,0,0-2.48,2.37v4H2594v-7.38H2595v1.63a2.91,2.91,0,0,1,2.86-1.67A2.61,2.61,0,0,1,2600.7,2732.92Z" transform="translate(-2185.59 -2572.95)"/><path class="cls-2" d="M2609.71,2736.7a3.39,3.39,0,0,1-3.71,3.52,5,5,0,0,1-3-1.06l0.5-.84a3.79,3.79,0,0,0,2.48.94,2.43,2.43,0,0,0,2.66-2.52v-1.12a2.91,2.91,0,0,1-2.72,1.54,3.56,3.56,0,0,1,0-7.1,3,3,0,0,1,2.75,1.54v-1.5h1.09v6.61Zm-1.09-3.08a2.53,2.53,0,1,0-2.52,2.61A2.47,2.47,0,0,0,2608.61,2733.62Z" transform="translate(-2185.59 -2572.95)"/><path class="cls-2" d="M2620.13,2727.66c2.42,0,3.82,1.21,3.82,3.29s-1.4,3.42-3.82,3.42h-2.56v3.1h-1.12v-9.81h3.68Zm-2.56,5.63h2.52c1.76,0,2.79-.79,2.79-2.31s-1-2.24-2.79-2.24h-2.52v4.55Z" transform="translate(-2185.59 -2572.95)"/><path class="cls-2" d="M2625.87,2737.47v-10.39H2627v10.39h-1.09Z" transform="translate(-2185.59 -2572.95)"/><path class="cls-2" d="M2634.41,2736.33a3.18,3.18,0,0,1-2.7,1.19,2.29,2.29,0,0,1-2.51-2.25c0-1.29,1-2.1,2.76-2.12h2.42v-0.43a1.68,1.68,0,0,0-2-1.72,4.09,4.09,0,0,0-2.34.84l-0.46-.8a5,5,0,0,1,3-1c1.82,0,2.83,1,2.84,2.55v4.88h-1.06v-1.13Zm0-1.42V2734h-2.3c-1.23,0-1.88.38-1.88,1.19a1.45,1.45,0,0,0,1.7,1.34A2.39,2.39,0,0,0,2634.4,2734.92Z" transform="translate(-2185.59 -2572.95)"/><path class="cls-2" d="M2641.86,2737a3.09,3.09,0,0,1-1.67.56,1.81,1.81,0,0,1-1.88-2.1v-4.22h-1.06v-0.88h1.06v-1.95h1.08v1.95h2.34v0.9h-2.34v4c0,0.9.35,1.23,1,1.23a2.24,2.24,0,0,0,1.18-.38Z" transform="translate(-2185.59 -2572.95)"/><path class="cls-2" d="M2645,2729.36v1h2.12v0.9H2645v6.26h-1.08v-6.26h-1v-0.9h1v-0.81a2.32,2.32,0,0,1,2.37-2.48,2.77,2.77,0,0,1,1.58.52l-0.45.88a2,2,0,0,0-1.12-.38A1.24,1.24,0,0,0,2645,2729.36Z" transform="translate(-2185.59 -2572.95)"/><path class="cls-2" d="M2654.92,2733.77a3.74,3.74,0,1,1-3.74-3.71A3.58,3.58,0,0,1,2654.92,2733.77Zm-6.39,0a2.65,2.65,0,1,0,2.65-2.73A2.59,2.59,0,0,0,2648.54,2733.78Z" transform="translate(-2185.59 -2572.95)"/><path class="cls-2" d="M2658.07,2731.73a2.76,2.76,0,0,1,2.65-1.68v1.11a2.45,2.45,0,0,0-2.65,2.4v3.92H2657v-7.38h1.09v1.64Z" transform="translate(-2185.59 -2572.95)"/><path class="cls-2" d="M2674.53,2732.92v4.55h-1.09v-4.26a1.9,1.9,0,0,0-2-2.09,2.44,2.44,0,0,0-2.41,2.72v3.63h-1.11v-4.26a1.89,1.89,0,0,0-2-2.09,2.45,2.45,0,0,0-2.42,2.72v3.63h-1.08v-7.38h1.08v1.67a2.84,2.84,0,0,1,2.82-1.71,2.51,2.51,0,0,1,2.65,1.93,2.85,2.85,0,0,1,2.91-1.93A2.59,2.59,0,0,1,2674.53,2732.92Z" transform="translate(-2185.59 -2572.95)"/><path class="cls-2" d="M2227.18,2781.59a5.14,5.14,0,1,1-5.13-4.93A5,5,0,0,1,2227.18,2781.59Zm-9.13,0a4,4,0,1,0,4-3.87A4,4,0,0,0,2218.05,2781.59Z" transform="translate(-2185.59 -2572.95)"/><path class="cls-2" d="M2236,2781.94v4.55h-1.09v-4.26a1.91,1.91,0,0,0-2.09-2.07,2.4,2.4,0,0,0-2.48,2.37v4h-1.09v-7.38h1.09v1.63a2.91,2.91,0,0,1,2.86-1.67A2.61,2.61,0,0,1,2236,2781.94Z" transform="translate(-2185.59 -2572.95)"/><path class="cls-2" d="M2244.89,2783.23h-6a2.59,2.59,0,0,0,2.68,2.35,3.08,3.08,0,0,0,2.28-.92l0.6,0.64a3.88,3.88,0,0,1-3,1.23,3.73,3.73,0,0,1,0-7.45C2243.83,2779.07,2245,2780.72,2244.89,2783.23Zm-1-.9a2.3,2.3,0,0,0-2.47-2.31,2.49,2.49,0,0,0-2.58,2.31h5Z" transform="translate(-2185.59 -2572.95)"/><path class="cls-2" d="M2257.62,2782.79a3.74,3.74,0,1,1-3.74-3.71A3.58,3.58,0,0,1,2257.62,2782.79Zm-6.39,0a2.65,2.65,0,1,0,2.65-2.73A2.59,2.59,0,0,0,2251.23,2782.81Z" transform="translate(-2185.59 -2572.95)"/><path class="cls-2" d="M2260.93,2778.38v1H2263v0.9h-2.12v6.26h-1.08v-6.26h-1v-0.9h1v-0.81a2.32,2.32,0,0,1,2.37-2.48,2.77,2.77,0,0,1,1.58.52l-0.45.88a2,2,0,0,0-1.12-.38A1.24,1.24,0,0,0,2260.93,2778.38Z" transform="translate(-2185.59 -2572.95)"/><path class="cls-2" d="M2272.09,2786a3.09,3.09,0,0,1-1.67.56,1.81,1.81,0,0,1-1.88-2.1v-4.22h-1.06v-0.88h1.06v-1.95h1.08v1.95H2272v0.9h-2.34v4c0,0.9.35,1.23,1,1.23a2.24,2.24,0,0,0,1.18-.38Z" transform="translate(-2185.59 -2572.95)"/><path class="cls-2" d="M2280.72,2781.94v4.55h-1.09v-4.26a1.91,1.91,0,0,0-2.09-2.07,2.45,2.45,0,0,0-2.49,2.7v3.63H2274V2776.1H2275v4.66a2.89,2.89,0,0,1,2.87-1.69A2.61,2.61,0,0,1,2280.72,2781.94Z" transform="translate(-2185.59 -2572.95)"/><path class="cls-2" d="M2289.65,2783.23h-6a2.59,2.59,0,0,0,2.68,2.35,3.08,3.08,0,0,0,2.28-.92l0.6,0.64a3.88,3.88,0,0,1-3,1.23,3.73,3.73,0,0,1,0-7.45C2288.58,2779.07,2289.76,2780.72,2289.65,2783.23Zm-1-.9a2.3,2.3,0,0,0-2.47-2.31,2.49,2.49,0,0,0-2.58,2.31h5Z" transform="translate(-2185.59 -2572.95)"/><path class="cls-2" d="M2296.91,2777.76V2781h4.94v1.08h-4.94v3.36h5.71v1.06h-6.84v-9.81h6.65v1.08h-5.53Z" transform="translate(-2185.59 -2572.95)"/><path class="cls-2" d="M2308,2777.76v8.73h-1.12v-8.73h-3.19v-1.08h7.52v1.08H2308Z" transform="translate(-2185.59 -2572.95)"/><path class="cls-2" d="M2320.42,2786.49h-1.34l-3-4.1-3,4.1h-1.32l3.6-5-3.35-4.76h1.32l2.7,3.78,2.73-3.78h1.32l-3.33,4.71Z" transform="translate(-2185.59 -2572.95)"/><path class="cls-2" d="M2330.08,2786a3.09,3.09,0,0,1-1.67.56,1.81,1.81,0,0,1-1.88-2.1v-4.22h-1.06v-0.88h1.06v-1.95h1.08v1.95H2330v0.9h-2.34v4c0,0.9.35,1.23,1,1.23a2.24,2.24,0,0,0,1.18-.38Z" transform="translate(-2185.59 -2572.95)"/><path class="cls-2" d="M2338.12,2783.23h-6a2.59,2.59,0,0,0,2.68,2.35,3.08,3.08,0,0,0,2.28-.92l0.6,0.64a3.88,3.88,0,0,1-3,1.23,3.73,3.73,0,0,1,0-7.45C2337.05,2779.07,2338.23,2780.72,2338.12,2783.23Zm-1-.9a2.3,2.3,0,0,0-2.47-2.31,2.49,2.49,0,0,0-2.58,2.31h5Z" transform="translate(-2185.59 -2572.95)"/><path class="cls-2" d="M2344.71,2785.35a3.18,3.18,0,0,1-2.7,1.19,2.29,2.29,0,0,1-2.51-2.25c0-1.29,1-2.1,2.76-2.12h2.42v-0.43a1.68,1.68,0,0,0-2-1.72,4.09,4.09,0,0,0-2.34.84l-0.46-.8a5,5,0,0,1,3-1c1.82,0,2.83,1,2.84,2.55v4.88h-1.06v-1.13Zm0-1.42v-0.88h-2.3c-1.23,0-1.88.38-1.88,1.19a1.45,1.45,0,0,0,1.7,1.34A2.39,2.39,0,0,0,2344.7,2783.94Z" transform="translate(-2185.59 -2572.95)"/><path class="cls-2" d="M2360.55,2781.94v4.55h-1.09v-4.26a1.9,1.9,0,0,0-2-2.09,2.44,2.44,0,0,0-2.41,2.72v3.63h-1.11v-4.26a1.89,1.89,0,0,0-2-2.09,2.45,2.45,0,0,0-2.42,2.72v3.63h-1.08v-7.38h1.08v1.67a2.83,2.83,0,0,1,2.82-1.71,2.51,2.51,0,0,1,2.65,1.93,2.85,2.85,0,0,1,2.91-1.93A2.59,2.59,0,0,1,2360.55,2781.94Z" transform="translate(-2185.59 -2572.95)"/><path class="cls-2" d="M2374,2786.49l-2.17-6-2.16,6h-1.13l-2.76-7.38H2367l2.18,6.25,2.14-6.25h1.15l2.17,6.25,2.16-6.25h1.13l-2.73,7.38H2374Z" transform="translate(-2185.59 -2572.95)"/><path class="cls-2" d="M2380.56,2777a0.72,0.72,0,1,1-.71-0.76A0.72,0.72,0,0,1,2380.56,2777Zm-1.25,9.5v-7.38h1.08v7.38h-1.08Z" transform="translate(-2185.59 -2572.95)"/><path class="cls-2" d="M2383.26,2786.49V2776.1h1.09v10.39h-1.09Z" transform="translate(-2185.59 -2572.95)"/><path class="cls-2" d="M2387.29,2786.49V2776.1h1.09v10.39h-1.09Z" transform="translate(-2185.59 -2572.95)"/><path class="cls-2" d="M2401,2780.17l-0.6.77a3.12,3.12,0,0,0-2.2-.85,2.73,2.73,0,0,0,0,5.45,2.88,2.88,0,0,0,2.28-1l0.63,0.67a3.71,3.71,0,0,1-3,1.27,3.73,3.73,0,0,1,0-7.45A3.78,3.78,0,0,1,2401,2780.17Z" transform="translate(-2185.59 -2572.95)"/><path class="cls-2" d="M2407.4,2785.35a3.18,3.18,0,0,1-2.7,1.19,2.29,2.29,0,0,1-2.51-2.25c0-1.29,1-2.1,2.76-2.12h2.42v-0.43a1.68,1.68,0,0,0-2-1.72,4.09,4.09,0,0,0-2.34.84l-0.46-.8a5,5,0,0,1,3-1c1.82,0,2.83,1,2.84,2.55v4.88h-1.06v-1.13Zm0-1.42v-0.88h-2.3c-1.23,0-1.88.38-1.88,1.19a1.45,1.45,0,0,0,1.7,1.34A2.39,2.39,0,0,0,2407.39,2783.94Z" transform="translate(-2185.59 -2572.95)"/><path class="cls-2" d="M2411.11,2786.49V2776.1h1.09v10.39h-1.09Z" transform="translate(-2185.59 -2572.95)"/><path class="cls-2" d="M2415.14,2786.49V2776.1h1.09v10.39h-1.09Z" transform="translate(-2185.59 -2572.95)"/><path class="cls-2" d="M2426.89,2786a3.09,3.09,0,0,1-1.67.56,1.81,1.81,0,0,1-1.88-2.1v-4.22h-1.06v-0.88h1.06v-1.95h1.08v1.95h2.34v0.9h-2.34v4c0,0.9.35,1.23,1,1.23a2.24,2.24,0,0,0,1.18-.38Z" transform="translate(-2185.59 -2572.95)"/><path class="cls-2" d="M2435.3,2782.79a3.74,3.74,0,1,1-3.74-3.71A3.58,3.58,0,0,1,2435.3,2782.79Zm-6.39,0a2.65,2.65,0,1,0,2.65-2.73A2.59,2.59,0,0,0,2428.92,2782.81Z" transform="translate(-2185.59 -2572.95)"/><path class="cls-2" d="M2225.91,2810.49l-2.17-6-2.16,6h-1.13l-2.76-7.38h1.15l2.18,6.25,2.14-6.25h1.15l2.17,6.25,2.16-6.25h1.13l-2.73,7.38h-1.13Z" transform="translate(-2185.59 -2572.95)"/><path class="cls-2" d="M2237.32,2807.23h-6a2.59,2.59,0,0,0,2.68,2.35,3.08,3.08,0,0,0,2.28-.92l0.6,0.64a3.88,3.88,0,0,1-3,1.23,3.73,3.73,0,0,1,0-7.45C2236.25,2803.07,2237.43,2804.72,2237.32,2807.23Zm-1-.9a2.3,2.3,0,0,0-2.47-2.31,2.49,2.49,0,0,0-2.58,2.31h5Z" transform="translate(-2185.59 -2572.95)"/><path class="cls-2" d="M2239.4,2810.49V2800.1h1.09v10.39h-1.09Z" transform="translate(-2185.59 -2572.95)"/><path class="cls-2" d="M2249.12,2804.17l-0.6.77a3.12,3.12,0,0,0-2.2-.85,2.73,2.73,0,0,0,0,5.45,2.88,2.88,0,0,0,2.28-1l0.63,0.67a3.71,3.71,0,0,1-3,1.27,3.73,3.73,0,0,1,0-7.45A3.78,3.78,0,0,1,2249.12,2804.17Z" transform="translate(-2185.59 -2572.95)"/><path class="cls-2" d="M2257.74,2806.79a3.74,3.74,0,1,1-3.74-3.71A3.58,3.58,0,0,1,2257.74,2806.79Zm-6.39,0a2.65,2.65,0,1,0,2.65-2.73A2.59,2.59,0,0,0,2251.36,2806.81Z" transform="translate(-2185.59 -2572.95)"/><path class="cls-2" d="M2272,2805.94v4.55h-1.09v-4.26a1.9,1.9,0,0,0-2-2.09,2.44,2.44,0,0,0-2.41,2.72v3.63h-1.11v-4.26a1.89,1.89,0,0,0-2-2.09,2.45,2.45,0,0,0-2.42,2.72v3.63h-1.08v-7.38h1.08v1.67a2.83,2.83,0,0,1,2.82-1.71,2.51,2.51,0,0,1,2.65,1.93,2.85,2.85,0,0,1,2.91-1.93A2.59,2.59,0,0,1,2272,2805.94Z" transform="translate(-2185.59 -2572.95)"/><path class="cls-2" d="M2280.91,2807.23h-6a2.59,2.59,0,0,0,2.68,2.35,3.08,3.08,0,0,0,2.28-.92l0.6,0.64a3.88,3.88,0,0,1-3,1.23,3.73,3.73,0,0,1,0-7.45C2279.85,2803.07,2281,2804.72,2280.91,2807.23Zm-1-.9a2.3,2.3,0,0,0-2.47-2.31,2.49,2.49,0,0,0-2.58,2.31h5Z" transform="translate(-2185.59 -2572.95)"/><path class="cls-2" d="M2289.25,2811.54a2.38,2.38,0,0,1-2.21,1.72,2.34,2.34,0,0,1-1.55-.55l0.46-.91a1.75,1.75,0,0,0,1,.35,1.47,1.47,0,0,0,1.34-1l0.31-.69-3.05-7.33h1.15l2.45,6.09,2.34-6.09h1.12Z" transform="translate(-2185.59 -2572.95)"/><path class="cls-2" d="M2300.57,2806.79a3.74,3.74,0,1,1-3.74-3.71A3.58,3.58,0,0,1,2300.57,2806.79Zm-6.39,0a2.65,2.65,0,1,0,2.65-2.73A2.59,2.59,0,0,0,2294.18,2806.81Z" transform="translate(-2185.59 -2572.95)"/><path class="cls-2" d="M2309,2810.49h-1.09v-1.67a2.81,2.81,0,0,1-2.8,1.71,2.6,2.6,0,0,1-2.76-2.87v-4.55h1.09v4.26a1.89,1.89,0,0,0,2,2.07,2.43,2.43,0,0,0,2.42-2.7v-3.63H2309v7.38Z" transform="translate(-2185.59 -2572.95)"/><path class="cls-2" d="M2320.38,2809.35a3.18,3.18,0,0,1-2.7,1.19,2.29,2.29,0,0,1-2.51-2.25c0-1.29,1-2.1,2.76-2.12h2.42v-0.43a1.68,1.68,0,0,0-2-1.72,4.09,4.09,0,0,0-2.34.84l-0.46-.8a5,5,0,0,1,3-1c1.82,0,2.83,1,2.84,2.55v4.88h-1.06v-1.13Zm0-1.42v-0.88h-2.3c-1.23,0-1.88.38-1.88,1.19a1.45,1.45,0,0,0,1.7,1.34A2.39,2.39,0,0,0,2320.36,2807.94Z" transform="translate(-2185.59 -2572.95)"/><path class="cls-2" d="M2330.77,2805.94v4.55h-1.09v-4.26a1.91,1.91,0,0,0-2.09-2.07,2.4,2.4,0,0,0-2.48,2.37v4H2324v-7.38h1.09v1.63a2.91,2.91,0,0,1,2.86-1.67A2.61,2.61,0,0,1,2330.77,2805.94Z" transform="translate(-2185.59 -2572.95)"/><path class="cls-2" d="M2340.12,2810.49H2339v-1.58a3.08,3.08,0,0,1-2.87,1.64,3.75,3.75,0,0,1,0-7.49,3.09,3.09,0,0,1,2.89,1.65v-4.61h1.09v10.39Zm-1.09-3.67a2.67,2.67,0,1,0-2.66,2.75A2.62,2.62,0,0,0,2339,2806.82Z" transform="translate(-2185.59 -2572.95)"/><path class="cls-2" d="M2353.7,2806.79a3.74,3.74,0,1,1-3.74-3.71A3.58,3.58,0,0,1,2353.7,2806.79Zm-6.39,0a2.65,2.65,0,1,0,2.65-2.73A2.59,2.59,0,0,0,2347.31,2806.81Z" transform="translate(-2185.59 -2572.95)"/><path class="cls-2" d="M2357,2802.38v1h2.12v0.9H2357v6.26h-1.08v-6.26h-1v-0.9h1v-0.81a2.32,2.32,0,0,1,2.37-2.48,2.77,2.77,0,0,1,1.58.52l-0.45.88a2,2,0,0,0-1.12-.38A1.24,1.24,0,0,0,2357,2802.38Z" transform="translate(-2185.59 -2572.95)"/><path class="cls-2" d="M2361.8,2802.38v1h2.12v0.9h-2.12v6.26h-1.08v-6.26h-1v-0.9h1v-0.81a2.32,2.32,0,0,1,2.37-2.48,2.77,2.77,0,0,1,1.58.52l-0.45.88a2,2,0,0,0-1.12-.38A1.24,1.24,0,0,0,2361.8,2802.38Z" transform="translate(-2185.59 -2572.95)"/><path class="cls-2" d="M2371.39,2807.23h-6a2.59,2.59,0,0,0,2.68,2.35,3.08,3.08,0,0,0,2.28-.92l0.6,0.64a3.88,3.88,0,0,1-3,1.23,3.73,3.73,0,0,1,0-7.45C2370.33,2803.07,2371.5,2804.72,2371.39,2807.23Zm-1-.9a2.3,2.3,0,0,0-2.47-2.31,2.49,2.49,0,0,0-2.58,2.31h5Z" transform="translate(-2185.59 -2572.95)"/><path class="cls-2" d="M2374.5,2804.75a2.76,2.76,0,0,1,2.65-1.68v1.11a2.45,2.45,0,0,0-2.65,2.4v3.92h-1.09v-7.38h1.09v1.64Z" transform="translate(-2185.59 -2572.95)"/><path class="cls-2" d="M2387,2803.74l-0.42.87a3.9,3.9,0,0,0-2-.6c-0.83,0-1.46.29-1.46,1,0,1.64,4.12.8,4.12,3.45,0,1.46-1.29,2.1-2.7,2.1a4.17,4.17,0,0,1-2.83-1l0.42-.83a3.73,3.73,0,0,0,2.45.94c0.87,0,1.57-.32,1.58-1,0-1.78-4.09-.87-4.08-3.49,0-1.42,1.22-2,2.56-2A4.27,4.27,0,0,1,2387,2803.74Z" transform="translate(-2185.59 -2572.95)"/><path class="cls-2" d="M2395.61,2810.49h-1.09v-1.67a2.81,2.81,0,0,1-2.8,1.71,2.6,2.6,0,0,1-2.76-2.87v-4.55h1.09v4.26a1.89,1.89,0,0,0,2,2.07,2.43,2.43,0,0,0,2.42-2.7v-3.63h1.09v7.38Z" transform="translate(-2185.59 -2572.95)"/><path class="cls-2" d="M2406,2806.82a3.45,3.45,0,0,1-3.52,3.71,3.09,3.09,0,0,1-2.87-1.62v4.3h-1.09v-10.1h1.09v1.6a3.07,3.07,0,0,1,2.84-1.64A3.49,3.49,0,0,1,2406,2806.82Zm-1.11,0a2.64,2.64,0,1,0-2.63,2.75A2.6,2.6,0,0,0,2404.85,2806.79Z" transform="translate(-2185.59 -2572.95)"/><path class="cls-2" d="M2415.56,2806.82a3.45,3.45,0,0,1-3.52,3.71,3.09,3.09,0,0,1-2.87-1.62v4.3h-1.09v-10.1h1.09v1.6a3.07,3.07,0,0,1,2.84-1.64A3.49,3.49,0,0,1,2415.56,2806.82Zm-1.11,0a2.64,2.64,0,1,0-2.63,2.75A2.6,2.6,0,0,0,2414.46,2806.79Z" transform="translate(-2185.59 -2572.95)"/><path class="cls-2" d="M2424.35,2806.79a3.74,3.74,0,1,1-3.74-3.71A3.58,3.58,0,0,1,2424.35,2806.79Zm-6.39,0a2.65,2.65,0,1,0,2.65-2.73A2.59,2.59,0,0,0,2418,2806.81Z" transform="translate(-2185.59 -2572.95)"/><path class="cls-2" d="M2427.5,2804.75a2.76,2.76,0,0,1,2.65-1.68v1.11a2.45,2.45,0,0,0-2.65,2.4v3.92h-1.09v-7.38h1.09v1.64Z" transform="translate(-2185.59 -2572.95)"/><path class="cls-2" d="M2435.57,2810a3.09,3.09,0,0,1-1.67.56,1.81,1.81,0,0,1-1.88-2.1v-4.22H2431v-0.88H2432v-1.95h1.08v1.95h2.34v0.9h-2.34v4c0,0.9.35,1.23,1,1.23a2.24,2.24,0,0,0,1.18-.38Z" transform="translate(-2185.59 -2572.95)"/><path class="cls-3" d="M2465.74,2583.36a4.85,4.85,0,1,1,4.85-4.85A4.86,4.86,0,0,1,2465.74,2583.36Zm0-8.7a3.85,3.85,0,1,0,3.85,3.85A3.86,3.86,0,0,0,2465.74,2574.66Z" transform="translate(-2185.59 -2572.95)"/><path class="cls-3" d="M2465.74,2656.37a6.31,6.31,0,1,1,6.31-6.31A6.31,6.31,0,0,1,2465.74,2656.37Zm0-11.31a5,5,0,1,0,5,5A5,5,0,0,0,2465.74,2645.06Z" transform="translate(-2185.59 -2572.95)"/><path class="cls-3" d="M2465.74,2729.39a7.76,7.76,0,1,1,7.76-7.76A7.77,7.77,0,0,1,2465.74,2729.39Zm0-13.92a6.16,6.16,0,1,0,6.16,6.16A6.17,6.17,0,0,0,2465.74,2715.47Z" transform="translate(-2185.59 -2572.95)"/><path class="cls-3" d="M2465.74,2802.89a9.7,9.7,0,1,1,9.7-9.7A9.71,9.71,0,0,1,2465.74,2802.89Zm0-17.4a7.7,7.7,0,1,0,7.7,7.7A7.71,7.71,0,0,0,2465.74,2785.49Z" transform="translate(-2185.59 -2572.95)"/><path class="cls-2" d="M2499.44,3013.63c2.42,0,3.82,1.21,3.82,3.29s-1.4,3.42-3.82,3.42h-2.56v3.1h-1.12v-9.81h3.68Zm-2.56,5.63h2.52c1.76,0,2.79-.79,2.79-2.31s-1-2.24-2.79-2.24h-2.52v4.55Z" transform="translate(-2185.59 -2572.95)"/><path class="cls-2" d="M2505.17,3023.44V3013h1.09v10.39h-1.09Z" transform="translate(-2185.59 -2572.95)"/><path class="cls-2" d="M2513.72,3022.3a3.18,3.18,0,0,1-2.7,1.19,2.29,2.29,0,0,1-2.51-2.25c0-1.29,1-2.1,2.76-2.12h2.42v-0.43a1.68,1.68,0,0,0-2-1.72,4.09,4.09,0,0,0-2.34.84l-0.46-.8a5,5,0,0,1,3-1c1.82,0,2.83,1,2.84,2.55v4.88h-1.06v-1.13Zm0-1.42V3020h-2.3c-1.23,0-1.88.38-1.88,1.19a1.45,1.45,0,0,0,1.7,1.34A2.39,2.39,0,0,0,2513.7,3020.89Z" transform="translate(-2185.59 -2572.95)"/><path class="cls-2" d="M2523.11,3017.12l-0.6.77a3.12,3.12,0,0,0-2.2-.85,2.73,2.73,0,0,0,0,5.45,2.88,2.88,0,0,0,2.28-1l0.63,0.67a3.71,3.71,0,0,1-3,1.27,3.73,3.73,0,0,1,0-7.45A3.78,3.78,0,0,1,2523.11,3017.12Z" transform="translate(-2185.59 -2572.95)"/><path class="cls-2" d="M2531.36,3020.17h-6a2.59,2.59,0,0,0,2.68,2.35,3.08,3.08,0,0,0,2.28-.92l0.6,0.64a3.88,3.88,0,0,1-3,1.23,3.73,3.73,0,0,1,0-7.45C2530.29,3016,2531.47,3017.66,2531.36,3020.17Zm-1-.9a2.3,2.3,0,0,0-2.47-2.31,2.49,2.49,0,0,0-2.58,2.31h5Z" transform="translate(-2185.59 -2572.95)"/><path class="cls-2" d="M2538.24,3023.44v-8.74h-2v-1.07h3.1v9.81h-1.11Z" transform="translate(-2185.59 -2572.95)"/><path class="cls-2" d="M2550.46,3022.93a3.09,3.09,0,0,1-1.67.56,1.81,1.81,0,0,1-1.88-2.1v-4.22h-1.06v-0.88h1.06v-1.95H2548v1.95h2.34v0.9H2548v4c0,0.9.35,1.23,1,1.23a2.24,2.24,0,0,0,1.18-.38Z" transform="translate(-2185.59 -2572.95)"/><path class="cls-2" d="M2553.35,3017.69A2.76,2.76,0,0,1,2556,3016v1.11a2.45,2.45,0,0,0-2.65,2.4v3.92h-1.09v-7.38h1.09v1.64Z" transform="translate(-2185.59 -2572.95)"/><path class="cls-2" d="M2561.83,3022.3a3.18,3.18,0,0,1-2.7,1.19,2.29,2.29,0,0,1-2.51-2.25c0-1.29,1-2.1,2.76-2.12h2.42v-0.43a1.68,1.68,0,0,0-2-1.72,4.09,4.09,0,0,0-2.34.84l-0.46-.8a5,5,0,0,1,3-1c1.82,0,2.83,1,2.84,2.55v4.88h-1.06v-1.13Zm0-1.42V3020h-2.3c-1.23,0-1.88.38-1.88,1.19a1.45,1.45,0,0,0,1.7,1.34A2.39,2.39,0,0,0,2561.82,3020.89Z" transform="translate(-2185.59 -2572.95)"/><path class="cls-2" d="M2572.25,3023.44h-1.09v-1.58a3.08,3.08,0,0,1-2.87,1.64,3.75,3.75,0,0,1,0-7.49,3.09,3.09,0,0,1,2.89,1.65V3013h1.09v10.39Zm-1.09-3.67a2.67,2.67,0,1,0-2.66,2.75A2.62,2.62,0,0,0,2571.16,3019.77Z" transform="translate(-2185.59 -2572.95)"/><path class="cls-2" d="M2581.48,3020.17h-6a2.59,2.59,0,0,0,2.68,2.35,3.08,3.08,0,0,0,2.28-.92l0.6,0.64a3.88,3.88,0,0,1-3,1.23,3.73,3.73,0,0,1,0-7.45C2580.41,3016,2581.59,3017.66,2581.48,3020.17Zm-1-.9A2.3,2.3,0,0,0,2578,3017a2.49,2.49,0,0,0-2.58,2.31h5Z" transform="translate(-2185.59 -2572.95)"/><path class="cls-2" d="M2592,3022.3a3.18,3.18,0,0,1-2.7,1.19,2.29,2.29,0,0,1-2.51-2.25c0-1.29,1-2.1,2.76-2.12H2592v-0.43a1.68,1.68,0,0,0-2-1.72,4.09,4.09,0,0,0-2.34.84l-0.46-.8a5,5,0,0,1,3-1c1.82,0,2.83,1,2.84,2.55v4.88H2592v-1.13Zm0-1.42V3020h-2.3c-1.23,0-1.88.38-1.88,1.19a1.45,1.45,0,0,0,1.7,1.34A2.39,2.39,0,0,0,2592,3020.89Z" transform="translate(-2185.59 -2572.95)"/><path class="cls-2" d="M2602.43,3018.88v4.55h-1.09v-4.26a1.91,1.91,0,0,0-2.09-2.07,2.4,2.4,0,0,0-2.48,2.37v4h-1.09v-7.38h1.09v1.63a2.91,2.91,0,0,1,2.86-1.67A2.61,2.61,0,0,1,2602.43,3018.88Z" transform="translate(-2185.59 -2572.95)"/><path class="cls-2" d="M2611.79,3023.44h-1.09v-1.58a3.08,3.08,0,0,1-2.87,1.64,3.75,3.75,0,0,1,0-7.49,3.09,3.09,0,0,1,2.89,1.65V3013h1.09v10.39Zm-1.09-3.67a2.67,2.67,0,1,0-2.66,2.75A2.62,2.62,0,0,0,2610.69,3019.77Z" transform="translate(-2185.59 -2572.95)"/><path class="cls-2" d="M2621,3024.49a2.38,2.38,0,0,1-2.21,1.72,2.34,2.34,0,0,1-1.55-.55l0.46-.91a1.75,1.75,0,0,0,1,.35,1.47,1.47,0,0,0,1.34-1l0.31-.69-3.05-7.33h1.15l2.45,6.09,2.34-6.09h1.12Z" transform="translate(-2185.59 -2572.95)"/><path class="cls-2" d="M2632.29,3019.74a3.74,3.74,0,1,1-3.74-3.71A3.58,3.58,0,0,1,2632.29,3019.74Zm-6.39,0a2.65,2.65,0,1,0,2.65-2.73A2.59,2.59,0,0,0,2625.91,3019.75Z" transform="translate(-2185.59 -2572.95)"/><path class="cls-2" d="M2640.75,3023.44h-1.09v-1.67a2.81,2.81,0,0,1-2.8,1.71,2.6,2.6,0,0,1-2.76-2.87v-4.55h1.09v4.26a1.89,1.89,0,0,0,2,2.07,2.43,2.43,0,0,0,2.42-2.7v-3.63h1.09v7.38Z" transform="translate(-2185.59 -2572.95)"/><path class="cls-2" d="M2653.28,3017.12l-0.6.77a3.12,3.12,0,0,0-2.2-.85,2.73,2.73,0,0,0,0,5.45,2.88,2.88,0,0,0,2.28-1l0.63,0.67a3.71,3.71,0,0,1-3,1.27,3.73,3.73,0,0,1,0-7.45A3.78,3.78,0,0,1,2653.28,3017.12Z" transform="translate(-2185.59 -2572.95)"/><path class="cls-2" d="M2661.9,3019.74a3.74,3.74,0,1,1-3.74-3.71A3.58,3.58,0,0,1,2661.9,3019.74Zm-6.39,0a2.65,2.65,0,1,0,2.65-2.73A2.59,2.59,0,0,0,2655.52,3019.75Z" transform="translate(-2185.59 -2572.95)"/><path class="cls-2" d="M2670.36,3023.44h-1.09v-1.67a2.81,2.81,0,0,1-2.8,1.71,2.6,2.6,0,0,1-2.76-2.87v-4.55h1.09v4.26a1.89,1.89,0,0,0,2,2.07,2.43,2.43,0,0,0,2.42-2.7v-3.63h1.09v7.38Z" transform="translate(-2185.59 -2572.95)"/><path class="cls-2" d="M2673.23,3023.44V3013h1.09v10.39h-1.09Z" transform="translate(-2185.59 -2572.95)"/><path class="cls-2" d="M2684,3023.44h-1.09v-1.58a3.08,3.08,0,0,1-2.87,1.64,3.75,3.75,0,0,1,0-7.49,3.09,3.09,0,0,1,2.89,1.65V3013H2684v10.39Zm-1.09-3.67a2.67,2.67,0,1,0-2.66,2.75A2.62,2.62,0,0,0,2682.88,3019.77Z" transform="translate(-2185.59 -2572.95)"/><path class="cls-2" d="M2697.76,3023.44l-2.17-6-2.16,6h-1.13l-2.76-7.38h1.15l2.18,6.25,2.14-6.25h1.15l2.17,6.25,2.16-6.25h1.13l-2.73,7.38h-1.13Z" transform="translate(-2185.59 -2572.95)"/><path class="cls-2" d="M2704.29,3013.94a0.72,0.72,0,1,1-.71-0.76A0.72,0.72,0,0,1,2704.29,3013.94Zm-1.25,9.5v-7.38h1.08v7.38H2703Z" transform="translate(-2185.59 -2572.95)"/><path class="cls-2" d="M2713.68,3018.88v4.55h-1.09v-4.26a1.91,1.91,0,0,0-2.09-2.07,2.4,2.4,0,0,0-2.48,2.37v4h-1.09v-7.38H2708v1.63a2.91,2.91,0,0,1,2.86-1.67A2.61,2.61,0,0,1,2713.68,3018.88Z" transform="translate(-2185.59 -2572.95)"/><path class="cls-4" d="M2726.15,3022.09v1.34h-6.74v-1.34h1.16v-2.83h-1.16v-1.18h1.16v-1.42a2.76,2.76,0,0,1,3-3.11,3.66,3.66,0,0,1,2.77,1.26l-0.66,1.29a2.59,2.59,0,0,0-1.95-1.06,1.42,1.42,0,0,0-1.5,1.67v1.37h2.46v1.18h-2.46v2.83h3.92Z" transform="translate(-2185.59 -2572.95)"/><path class="cls-4" d="M2728.79,3023.44v-8.33h-1.92v-1.47h3.57v9.81h-1.65Z" transform="translate(-2185.59 -2572.95)"/><path class="cls-4" d="M2741.26,3018.53c0,3.18-1.48,4.94-4.16,4.94s-4.17-1.76-4.17-4.94,1.48-4.95,4.17-4.95S2741.26,3015.35,2741.26,3018.53Zm-6.64,0c0,2.48.83,3.64,2.48,3.64s2.46-1.16,2.46-3.64-0.83-3.64-2.46-3.64S2734.62,3016,2734.62,3018.53Z" transform="translate(-2185.59 -2572.95)"/><path class="cls-4" d="M2744.44,3022.64a1.28,1.28,0,0,1-.25.74l-0.8,1.2h-0.83l0.53-1.22A0.88,0.88,0,1,1,2744.44,3022.64Z" transform="translate(-2185.59 -2572.95)"/><path class="cls-4" d="M2754.21,3018.53c0,3.18-1.48,4.94-4.16,4.94s-4.17-1.76-4.17-4.94,1.49-4.95,4.17-4.95S2754.21,3015.35,2754.21,3018.53Zm-6.64,0c0,2.48.83,3.64,2.48,3.64s2.46-1.16,2.46-3.64-0.83-3.64-2.46-3.64S2747.57,3016,2747.57,3018.53Z" transform="translate(-2185.59 -2572.95)"/><path class="cls-4" d="M2764,3018.53c0,3.18-1.48,4.94-4.16,4.94s-4.17-1.76-4.17-4.94,1.48-4.95,4.17-4.95S2764,3015.35,2764,3018.53Zm-6.64,0c0,2.48.83,3.64,2.48,3.64s2.46-1.16,2.46-3.64-0.83-3.64-2.46-3.64S2757.38,3016,2757.38,3018.53Z" transform="translate(-2185.59 -2572.95)"/><path class="cls-4" d="M2773.83,3018.53c0,3.18-1.48,4.94-4.16,4.94s-4.17-1.76-4.17-4.94,1.48-4.95,4.17-4.95S2773.83,3015.35,2773.83,3018.53Zm-6.64,0c0,2.48.83,3.64,2.48,3.64s2.46-1.16,2.46-3.64-0.83-3.64-2.46-3.64S2767.19,3016,2767.19,3018.53Z" transform="translate(-2185.59 -2572.95)"/><path class="cls-3" d="M2465.74,2950a12.61,12.61,0,1,1,12.61-12.61A12.63,12.63,0,0,1,2465.74,2950Zm0-22.62a10,10,0,1,0,10,10A10,10,0,0,0,2465.74,2927.36Z" transform="translate(-2185.59 -2572.95)"/><path class="cls-3" d="M2465.74,3034.83a16.4,16.4,0,1,1,16.39-16.4A16.42,16.42,0,0,1,2465.74,3034.83Zm0-29.41a13,13,0,1,0,13,13A13,13,0,0,0,2465.74,3005.42Z" transform="translate(-2185.59 -2572.95)"/><path class="cls-3" d="M2465.74,2875.91a11.16,11.16,0,1,1,11.16-11.16A11.17,11.17,0,0,1,2465.74,2875.91Zm0-20a8.86,8.86,0,1,0,8.86,8.86A8.87,8.87,0,0,0,2465.74,2855.89Z" transform="translate(-2185.59 -2572.95)"/><path class="cls-1" d="M2466,2638.21h-0.5v-2h0.5v2Zm0-4h-0.5v-2h0.5v2Zm0-4h-0.5v-2h0.5v2Zm-0.5-4v-2h0.5v2h-0.5Zm0.5-4h-0.5v-2h0.5v2Zm0-4h-0.5v-2h0.5v2Zm0-4h-0.5v-2h0.5v2Zm0-4h-0.5v-2h0.5v2Zm0-4h-0.5v-2h0.5v2Zm-0.5-4v-2h0.5v2h-0.5Zm0.5-4h-0.5v-2h0.5v2Zm0-4h-0.5v-2h0.5v2Zm0-4h-0.5v-2h0.5v2Z" transform="translate(-2185.59 -2572.95)"/></svg>