<svg id="Layer_1" data-name="Layer 1" xmlns="http://www.w3.org/2000/svg" viewBox="0 0 16.97 16.97"><defs><style>.cls-1{fill:#223f6a;}</style></defs><title>Asset1</title><path class="cls-1" d="M3103.64,46.84a8.49,8.49,0,1,1,8.49-8.49A8.5,8.5,0,0,1,3103.64,46.84Zm0-16.4a7.91,7.91,0,1,0,7.91,7.91A7.92,7.92,0,0,0,3103.64,30.44Z" transform="translate(-3095.16 -29.86)"/><path class="cls-1" d="M3102.84,46.8a0.28,0.28,0,0,1-.21-0.09c-8.13-8.87-.07-16.65,0-16.72a0.29,0.29,0,0,1,.39.42c-0.32.3-7.73,7.47,0,15.92A0.29,0.29,0,0,1,3102.84,46.8Z" transform="translate(-3095.16 -29.86)"/><path class="cls-1" d="M3104.49,46.8a0.29,0.29,0,0,1-.21-0.48c7.76-8.46.33-15.62,0-15.92a0.29,0.29,0,0,1,.39-0.42c0.08,0.08,8.15,7.85,0,16.72A0.28,0.28,0,0,1,3104.49,46.8Z" transform="translate(-3095.16 -29.86)"/><path class="cls-1" d="M3103.77,35.7a11.47,11.47,0,0,1-6.67-2.3,0.29,0.29,0,0,1,.37-0.44,9.92,9.92,0,0,0,12.37,0,0.29,0.29,0,0,1,.35.46A10.45,10.45,0,0,1,3103.77,35.7Z" transform="translate(-3095.16 -29.86)"/><path class="cls-1" d="M3097.28,43.82a0.29,0.29,0,0,1-.17-0.51c6.77-5.13,13,0,13.08,0a0.29,0.29,0,0,1-.37.44,9.92,9.92,0,0,0-12.37,0A0.28,0.28,0,0,1,3097.28,43.82Z" transform="translate(-3095.16 -29.86)"/><path class="cls-1" d="M3111.84,38.64h-16.4a0.29,0.29,0,1,1,0-.57h16.4A0.29,0.29,0,0,1,3111.84,38.64Z" transform="translate(-3095.16 -29.86)"/><path class="cls-1" d="M3103.64,46.84a0.29,0.29,0,0,1-.29-0.29V30.15a0.29,0.29,0,1,1,.57,0v16.4A0.29,0.29,0,0,1,3103.64,46.84Z" transform="translate(-3095.16 -29.86)"/></svg>