<svg id="Layer_1" data-name="Layer 1" xmlns="http://www.w3.org/2000/svg" viewBox="0 0 131.36 131.36"><defs><style>.cls-1{fill:#fff;}.cls-2{fill:#223f6a;}</style></defs><title>Asset27</title><circle class="cls-1" cx="65.68" cy="65.68" r="65.68"/><path class="cls-2" d="M2961.36,1769.7a9.13,9.13,0,1,1,9.13-9.13A9.14,9.14,0,0,1,2961.36,1769.7Zm0-16.76a7.63,7.63,0,1,0,7.63,7.63A7.64,7.64,0,0,0,2961.36,1752.94Z" transform="translate(-2895.44 -1703.96)"/><path class="cls-2" d="M2979.1,1792.38h-34.76a0.75,0.75,0,0,1-.73-0.58c0-.1-2.24-10.33,10.32-16.55a0.75,0.75,0,0,1,.82.1c0.31,0.27,7.75,6.49,14.2,0a0.75,0.75,0,0,1,.83-0.16c0.11,0.05,11.39,5.19,10.06,16.48A0.75,0.75,0,0,1,2979.1,1792.38Zm-34.11-1.5h33.43c0.61-8.54-6.87-13-8.8-14-6.43,6-13.67,1.29-15.44,0C2944.78,1781.67,2944.77,1788.81,2945,1790.88Z" transform="translate(-2895.44 -1703.96)"/><path class="cls-2" d="M2961.56,1773.6a0.75,0.75,0,0,1,0-1.5,11.59,11.59,0,1,0-11.59-11.59,0.75,0.75,0,0,1-1.5,0A13.09,13.09,0,1,1,2961.56,1773.6Z" transform="translate(-2895.44 -1703.96)"/><path class="cls-2" d="M2961.36,1776.39a0.75,0.75,0,0,1-.75-0.75v-4.86a0.75,0.75,0,0,1,1.5,0v4.86A0.75,0.75,0,0,1,2961.36,1776.39Z" transform="translate(-2895.44 -1703.96)"/><path class="cls-2" d="M2977.22,1764.91a0.75,0.75,0,0,1-.75-0.75v-4.86a0.75,0.75,0,0,1,1.5,0v4.86A0.75,0.75,0,0,1,2977.22,1764.91Z" transform="translate(-2895.44 -1703.96)"/><path class="cls-2" d="M2946.14,1764.91a0.75,0.75,0,0,1-.75-0.75v-4.86a0.75,0.75,0,0,1,1.5,0v4.86A0.75,0.75,0,0,1,2946.14,1764.91Z" transform="translate(-2895.44 -1703.96)"/></svg>