<svg id="Layer_1" data-name="Layer 1" xmlns="http://www.w3.org/2000/svg" viewBox="0 0 132.36 132.36"><defs><style>.cls-1{fill:#fff;}</style></defs><title>Asset10</title><path class="cls-1" d="M2629.76,2103.74a66.18,66.18,0,1,1,66.18-66.18A66.25,66.25,0,0,1,2629.76,2103.74Zm0-131.36a65.18,65.18,0,1,0,65.18,65.18A65.25,65.25,0,0,0,2629.76,1972.38Z" transform="translate(-2563.58 -1971.38)"/><path class="cls-1" d="M2640.91,2062.92H2618a1.75,1.75,0,0,1-1.75-1.75V2015.4a1.75,1.75,0,0,1,1.75-1.75h22.92a1.75,1.75,0,0,1,1.75,1.75v45.76A1.75,1.75,0,0,1,2640.91,2062.92ZM2618,2015.15a0.25,0.25,0,0,0-.25.25v45.76a0.25,0.25,0,0,0,.25.25h22.92a0.25,0.25,0,0,0,.25-0.25V2015.4a0.25,0.25,0,0,0-.25-0.25H2618Z" transform="translate(-2563.58 -1971.38)"/><path class="cls-1" d="M2641.91,2023H2617a0.75,0.75,0,0,1,0-1.5h24.92A0.75,0.75,0,0,1,2641.91,2023Z" transform="translate(-2563.58 -1971.38)"/><path class="cls-1" d="M2641.91,2054H2617a0.75,0.75,0,0,1,0-1.5h24.92A0.75,0.75,0,0,1,2641.91,2054Z" transform="translate(-2563.58 -1971.38)"/><circle class="cls-1" cx="65.87" cy="86.33" r="1.7"/><path class="cls-1" d="M2632.51,2019.09h-6.13a0.75,0.75,0,0,1,0-1.5h6.13A0.75,0.75,0,0,1,2632.51,2019.09Z" transform="translate(-2563.58 -1971.38)"/></svg>