<svg id="Layer_1" data-name="Layer 1" xmlns="http://www.w3.org/2000/svg" viewBox="0 0 132.36 132.36"><defs><style>.cls-1{fill:#fff;}</style></defs><title>Asset5</title><path class="cls-1" d="M2298.4,1835.81a66.18,66.18,0,1,1,66.18-66.18A66.25,66.25,0,0,1,2298.4,1835.81Zm0-131.36a65.18,65.18,0,1,0,65.18,65.18A65.25,65.25,0,0,0,2298.4,1704.46Z" transform="translate(-2232.22 -1703.46)"/><path class="cls-1" d="M2285.24,1791.84a0.75,0.75,0,0,1-.73-0.91l3.3-15.53-13.12-10.49a0.75,0.75,0,0,1,.46-1.34l16.24-.09,6.12-17.45a0.75,0.75,0,0,1,.7-0.5,0.7,0.7,0,0,1,.71.48l6.63,17.47h15.73a0.75,0.75,0,0,1,.45,1.35l-14.25,10.56,4.82,15.48a0.75,0.75,0,0,1-1.2.8l-13.25-11.11-12.1,11.09A0.75,0.75,0,0,1,2285.24,1791.84Zm-8-26.78,11.83,9.46a0.75,0.75,0,0,1,.26.74l-2.91,13.69,10.85-9.95a0.75,0.75,0,0,1,1,0l11.8,9.89-4.22-13.55a0.75,0.75,0,0,1,.27-0.83L2319,1765h-14a0.75,0.75,0,0,1-.7-0.48l-6.08-16-5.61,16a0.75,0.75,0,0,1-.7.5Zm14.65-.83h0Z" transform="translate(-2232.22 -1703.46)"/></svg>