<svg id="Layer_1" data-name="Layer 1" xmlns="http://www.w3.org/2000/svg" viewBox="0 0 131.36 131.36"><defs><style>.cls-1{fill:#fff;}.cls-2{fill:#223f6a;}</style></defs><title>Asset26</title><circle class="cls-1" cx="65.68" cy="65.68" r="65.68"/><path class="cls-2" d="M2656.08,1784.3h-53.31a0.75,0.75,0,0,1-.75-0.75v-7.25a0.75,0.75,0,0,1,1.5,0v6.5h51.81v-6.46a0.75,0.75,0,0,1,1.5,0v7.21A0.75,0.75,0,0,1,2656.08,1784.3Z" transform="translate(-2563.52 -1703.96)"/><path class="cls-2" d="M2602.77,1763.45a0.75,0.75,0,0,1-.75-0.75v-7.22a0.75,0.75,0,0,1,.75-0.75h53.31a0.75,0.75,0,0,1,.75.75v7.2a0.75,0.75,0,0,1-1.5,0v-6.45h-51.81v6.47A0.75,0.75,0,0,1,2602.77,1763.45Z" transform="translate(-2563.52 -1703.96)"/><path class="cls-2" d="M2602.77,1776.86a0.75,0.75,0,1,1,0-1.5,5.85,5.85,0,1,0,0-11.69,0.75,0.75,0,1,1,0-1.5A7.35,7.35,0,1,1,2602.77,1776.86Z" transform="translate(-2563.52 -1703.96)"/><path class="cls-2" d="M2656.08,1776.86a7.35,7.35,0,0,1,0-14.69,0.75,0.75,0,0,1,0,1.5,5.85,5.85,0,0,0,0,11.69A0.75,0.75,0,0,1,2656.08,1776.86Z" transform="translate(-2563.52 -1703.96)"/><path class="cls-2" d="M2641.6,1764.33h-24.36a0.75,0.75,0,0,1,0-1.5h24.36A0.75,0.75,0,0,1,2641.6,1764.33Z" transform="translate(-2563.52 -1703.96)"/><path class="cls-2" d="M2641.6,1770.39h-24.36a0.75,0.75,0,0,1,0-1.5h24.36A0.75,0.75,0,0,1,2641.6,1770.39Z" transform="translate(-2563.52 -1703.96)"/><path class="cls-2" d="M2641.6,1776.45h-24.36a0.75,0.75,0,0,1,0-1.5h24.36A0.75,0.75,0,0,1,2641.6,1776.45Z" transform="translate(-2563.52 -1703.96)"/></svg>