<svg id="Layer_1" data-name="Layer 1" xmlns="http://www.w3.org/2000/svg" viewBox="0 0 93.62 33.77"><defs><style>.cls-1,.cls-2,.cls-3,.cls-4{fill:#fff;}.cls-1{opacity:0.5;}.cls-1,.cls-3,.cls-4{isolation:isolate;}.cls-3{opacity:0.35;}.cls-4{opacity:0.4;}</style></defs><title>Asset36</title><polygon class="cls-1" points="31.72 13.34 33.9 16.59 41.77 5.03 38.38 0 38.35 0.03 31.72 13.34"/><polygon class="cls-1" points="50.08 17.37 43.76 31.61 44.06 32.05 52.04 20.29 50.08 17.37"/><path class="cls-2" d="M2394,1162.9l0.25,0.36Z" transform="translate(-2363.44 -1151.3)"/><polygon class="cls-2" points="38.38 0 38.38 0 22.97 0 22.97 0 22.97 0 38.38 0"/><polygon class="cls-3" points="58.39 29.71 58.39 29.71 55.6 33.77 61.13 33.77 58.39 29.71"/><polygon class="cls-4" points="31.72 13.34 31.72 13.34 30.84 11.95 31.72 13.34"/><polygon class="cls-3" points="30.59 11.6 30.84 11.95 31.72 13.34 38.35 0.03 30.59 11.6"/><polygon class="cls-1" points="53.17 18.64 60.3 8.17 56.96 3.37 51.02 15.43 53.17 18.64"/><polygon class="cls-1" points="63.42 33.77 78.05 33.77 68.11 19.44 62.4 32.27 63.42 33.77"/><polygon class="cls-3" points="49.92 13.78 51.02 15.43 56.96 3.37 56.96 3.37 49.92 13.78"/><polygon class="cls-2" points="56.96 3.37 56.32 3.37 56.32 3.37 56.96 3.37"/><polygon class="cls-4" points="56.96 3.37 56.32 3.37 56.32 3.37 56.96 3.37"/><polygon class="cls-1" points="80.34 33.74 93.62 33.74 74.27 6.35 69.13 17.42 80.34 33.74"/><path class="cls-2" d="M2437.71,1157.65h0Z" transform="translate(-2363.44 -1151.3)"/><polygon class="cls-2" points="61.51 6.35 61.54 6.38 61.54 6.35 61.51 6.35"/><polygon class="cls-3" points="67.92 15.68 69.13 17.42 74.27 6.35 74.27 6.35 67.92 15.68"/><polygon class="cls-3" points="59.52 28.02 62.4 32.27 68.11 19.44 66.73 17.45 59.52 28.02"/><polygon class="cls-3" points="48.78 15.43 40.83 27.17 43.76 31.61 50.08 17.37 48.78 15.43"/><polygon class="cls-2" points="61.54 6.35 61.54 6.35 61.54 6.38 60.3 8.17 53.17 18.64 52.04 20.29 44.06 32.05 42.88 33.77 55.6 33.77 55.6 33.77 58.39 29.71 58.39 29.71 59.5 28.08 59.52 28.02 66.73 17.45 66.76 17.39 67.89 15.71 67.92 15.68 74.27 6.35 74.27 6.35 74.27 6.35 61.54 6.35"/><polygon class="cls-2" points="56.32 3.37 56.32 3.37 42.88 3.37 42.88 3.4 41.77 5.03 33.9 16.59 22.2 33.77 36.36 33.77 40.8 27.22 40.83 27.17 48.78 15.43 48.81 15.4 49.86 13.86 49.92 13.78 56.96 3.37 56.32 3.37"/><path class="cls-2" d="M2401.82,1151.3h0Z" transform="translate(-2363.44 -1151.3)"/><polygon class="cls-2" points="38.38 0 22.97 0 22.97 0 0 33.77 15.65 33.77 30.59 11.6 30.59 11.6 38.35 0.03 38.38 0"/></svg>