<svg id="Layer_1" data-name="Layer 1" xmlns="http://www.w3.org/2000/svg" viewBox="0 0 131.36 131.36"><defs><style>.cls-1{fill:#fff;}.cls-2{fill:#223f6a;}</style></defs><title>Asset30</title><circle class="cls-1" cx="65.68" cy="65.68" r="65.68"/><path class="cls-2" d="M2276,2060.82a2.65,2.65,0,0,1-2.15-4.2l11.61-21a2.69,2.69,0,0,1,2.2-1.18h14.92l8.75-12.39a0.75,0.75,0,0,1,1.22.87l-9,12.7a0.75,0.75,0,0,1-.61.32h-15.31a1.16,1.16,0,0,0-.94.48l-11.61,21a1.16,1.16,0,1,0,1.82,1.42l11-20.18a0.75,0.75,0,0,1,.66-0.39h15.32a1.15,1.15,0,0,0,.94-0.48l9.5-13.37a0.75,0.75,0,0,1,1.22.87l-9.5,13.37a2.65,2.65,0,0,1-2.16,1.12H2289l-10.88,19.87A2.69,2.69,0,0,1,2276,2060.82Z" transform="translate(-2232.72 -1971.88)"/><path class="cls-2" d="M2319.59,2028.19a2.89,2.89,0,0,1-1.49-.5l-9.83-7.5a1.75,1.75,0,0,1-.85-1.71c0.2-1.18,1.83-1.78,2.15-1.88l9.43-3.08a2.2,2.2,0,0,1,2.12.2,2.57,2.57,0,0,1,.83,2c0,0.08-.37,7.62-0.54,10.16a2.27,2.27,0,0,1-1.09,2.1A1.67,1.67,0,0,1,2319.59,2028.19Zm-10.68-9.46a1.51,1.51,0,0,0,.28.27l9.8,7.48a1.06,1.06,0,0,0,.69.2,1.16,1.16,0,0,0,.25-0.84c0.16-2.53.53-10.06,0.53-10.14a1.15,1.15,0,0,0-.24-0.78,0.93,0.93,0,0,0-.74,0l-9.42,3.08a2.39,2.39,0,0,0-1.14.71h0Z" transform="translate(-2232.72 -1971.88)"/><path class="cls-2" d="M2291.24,2060.82a3.34,3.34,0,0,1-3.33-3.33v-8.08a3.34,3.34,0,1,1,6.67,0v8.08A3.34,3.34,0,0,1,2291.24,2060.82Zm0-13.25a1.84,1.84,0,0,0-1.83,1.84v8.08a1.84,1.84,0,0,0,3.67,0v-8.08A1.84,1.84,0,0,0,2291.24,2047.57Z" transform="translate(-2232.72 -1971.88)"/><path class="cls-2" d="M2305.2,2060.82a3.34,3.34,0,0,1-3.33-3.33v-9.79a3.34,3.34,0,0,1,6.67,0v9.79A3.34,3.34,0,0,1,2305.2,2060.82Zm0-15a1.84,1.84,0,0,0-1.83,1.83v9.79a1.84,1.84,0,0,0,3.67,0v-9.79A1.84,1.84,0,0,0,2305.2,2045.85Z" transform="translate(-2232.72 -1971.88)"/><path class="cls-2" d="M2319,2060.82a3.34,3.34,0,0,1-3.33-3.33v-21.33a3.34,3.34,0,0,1,6.67,0v21.33A3.34,3.34,0,0,1,2319,2060.82Zm0-26.5a1.84,1.84,0,0,0-1.83,1.83v21.33a1.84,1.84,0,0,0,3.67,0v-21.33A1.84,1.84,0,0,0,2319,2034.32Z" transform="translate(-2232.72 -1971.88)"/></svg>