<svg id="Layer_1" data-name="Layer 1" xmlns="http://www.w3.org/2000/svg" viewBox="0 0 56.96 56.96"><defs><style>.cls-1{fill:#fff;}</style></defs><title>Asset3</title><path class="cls-1" d="M2102.81,279.6a28.48,28.48,0,1,1,28.48-28.48A28.51,28.51,0,0,1,2102.81,279.6Zm0-55.46a27,27,0,1,0,27,27A27,27,0,0,0,2102.81,224.13Z" transform="translate(-2074.32 -222.63)"/><path class="cls-1" d="M2096.17,266.9a2.52,2.52,0,0,1-1.15-.27c-1.61-.81-1.76-3.08-1.77-3.34v-25a2.86,2.86,0,0,1,1.3-2.79c1.79-.94,4.57.89,4.88,1.1L2116,248a3.75,3.75,0,0,1,1.94,3,4.5,4.5,0,0,1-1.94,3.21c-0.13.09-12.73,8.76-17,11.62A5.22,5.22,0,0,1,2096.17,266.9Zm-0.44-30.17a1.05,1.05,0,0,0-.49.1,1.68,1.68,0,0,0-.5,1.46v25a2.75,2.75,0,0,0,1,2c0.67,0.33,1.69-.19,2.44-0.68,4.27-2.85,16.86-11.52,17-11.6a3,3,0,0,0,1.29-2,2.4,2.4,0,0,0-1.29-1.79l-16.54-11.38A6.23,6.23,0,0,0,2095.73,236.73Z" transform="translate(-2074.32 -222.63)"/></svg>